<?xml version="1.0" encoding="UTF-8"?>
<svg id="Calque_2" data-name="Calque 2" xmlns="http://www.w3.org/2000/svg" viewBox="0 0 20.59 22.77">
  <defs>
    <style>
      .cls-1 {
        fill: none;
        stroke: #1b212b;
        stroke-miterlimit: 10;
        stroke-width: .75px;
      }
    </style>
  </defs>
  <g id="Mood_Board" data-name="Mood Board">
    <path id="GitHub" class="cls-1" d="M20.08,7c-.06-.28-.18-.81-.5-1.43-.25-.49-.54-.86-.76-1.11,0-.03-.01-.05-.01-.08,0,0,0,0,0-.01,.04-.2,.09-.49,.13-.84,.07-.58,.14-1.22,0-1.98-.11-.59-.16-.88-.39-1.05-.41-.29-1.06-.03-1.93,.34-.52,.22-1.23,.57-2.02,1.11-.8-.23-1.83-.44-3.04-.49-1.66-.07-3.05,.18-4.03,.45-.49-.24-1.21-.58-2.09-.95-1.38-.58-1.61-.65-1.83-.54-.2,.1-.28,.29-.42,.65-.39,.99-.05,2.65-.03,2.8,.03,.23,.06,.42,.08,.53-.28,.33-.66,.85-.96,1.55-.46,1.08-.47,2.01-.47,2.54,0,.64,0,1.74,.59,2.97,1.01,2.12,2.94,2.96,3.36,3.14,1,.41,1.88,.49,2.47,.49l-.04,.17c-.14,.13-.28,.29-.39,.52-.26,.54-.09,.93-.38,1.25-.18,.2-.41,.23-.87,.31-.42,.07-1.28,.21-2.1-.26-.38-.22-.61-.49-.76-.67-.37-.43-.34-.6-.66-1-.13-.17-.5-.6-1.09-.86-.59-.25-1.4-.32-1.54-.05-.08,.14,.06,.35,.09,.41,.21,.33,.56,.29,.93,.56,.21,.15,.31,.32,.5,.66,.78,1.39,1.16,2.09,1.37,2.31,.65,.68,1.52,.85,2.13,.97,.9,.18,1.65,.07,2.09-.02-.02,.99-.03,1.98-.05,2.96,1.21-.03,2.44-.04,3.69-.05,1.13,0,2.24,0,3.34,.01-.01-1.02,.02-1.85,.04-2.41,0-.07,.04-1.59-.05-2.99-.01-.23-.07-.62-.29-1.05-.19-.36-.42-.61-.58-.75,.58,0,2.38-.11,4.06-1.42,1.49-1.16,2.05-2.61,2.23-3.18,.15-.57,.47-2.05,.15-3.55Z"/>
  </g>
</svg>