<?xml version="1.0" encoding="UTF-8"?>
<svg id="Calque_2" data-name="Calque 2" xmlns="http://www.w3.org/2000/svg" viewBox="0 0 23.43 23.43">
  <defs>
    <style>
      .cls-1 {
        fill: none;
        stroke: #1b212b;
        stroke-miterlimit: 10;
        stroke-width: .75px;
      }
    </style>
  </defs>
  <g id="Mood_Board" data-name="Mood Board">
    <path id="GitLab" class="cls-1" d="M23.05,11.26c-.04-.56-.16-1.01-.42-1.9-.2-.71-.42-1.3-.58-1.71-.42-1.15-.85-2.29-1.27-3.44l-1.13-3.26c-.26-.77-1.28-.77-1.54,0l-1.13,3.26-1.15,3.31H7.73l-1.15-3.31L5.46,.95c-.26-.77-1.28-.77-1.54,0l-.65,1.89-.76,2.34c-.37,.96-.69,1.77-.92,2.37-1.04,2.68-1.2,3.15-1.2,3.95,0,0-.02,2.13,1.1,3.54,.2,.26,.38,.43,.46,.5,1.55,1.45,7.45,5.87,9.31,7.25,.06,.04,.12,.07,.19,.09,.21,.2,.52,.23,.76,.05,.45-.33,1.66-1.23,3.09-2.31l1.53-1.41c1.91-1.46,3.86-2.99,4.69-3.78,.11-.1,.35-.33,.6-.69,1.08-1.5,.95-3.49,.95-3.49Z"/>
  </g>
</svg>