<svg xmlns="http://www.w3.org/2000/svg" viewBox="0 0 77.49 75.68"><defs><style>.cls-1{fill:#5e72b6;}</style></defs><g id="Calque_2" data-name="Calque 2"><g id="Layer_1" data-name="Layer 1"><path class="cls-1" d="M26.49,28.05H26.4c-.44,1.74-.88,4-1.36,5.71l-1.77,6.3h6.56L28,33.76C27.47,32,27,29.78,26.49,28.05Z"/><path class="cls-1" d="M65.49,0H12A12,12,0,0,0,0,12V63.68a12,12,0,0,0,12,12H65.49a12,12,0,0,0,12-12V12A12,12,0,0,0,65.49,0ZM33.1,52.67l-2.28-7.61H22.29L20.2,52.67H13.27L22.32,23h8.77l9.24,29.66Zm31.13,0H57.52V40.73c0-2.77-1-4.67-3.41-4.67a3.61,3.61,0,0,0-3.39,2.53,4.79,4.79,0,0,0-.24,1.65V52.67h-6.7V38c0-2.68-.09-4.95-.18-6.88h5.81l.31,3h.14a7.8,7.8,0,0,1,6.66-3.47c4.4,0,7.71,2.93,7.71,9.27Z"/></g></g></svg>