<svg xmlns="http://www.w3.org/2000/svg" viewBox="0 0 82.71 82.71"><defs><style>.cls-1{fill:#5e72b6;}</style></defs><g id="Calque_2" data-name="Calque 2"><g id="Layer_1" data-name="Layer 1"><path class="cls-1" d="M48,43.85Q44.37,41.3,37.49,41.3H30.76V60.43H38q6.3,0,10-2.51A7.89,7.89,0,0,0,51.64,51,8.24,8.24,0,0,0,48,43.85Z"/><path class="cls-1" d="M49.82,29.16A5.65,5.65,0,0,0,47,24.06c-1.91-1.19-4.7-1.79-8.39-1.79H30.76V36.45h7.42Q49.82,36.45,49.82,29.16Z"/><path class="cls-1" d="M70.71,0H12A12,12,0,0,0,0,12V70.71a12,12,0,0,0,12,12H70.71a12,12,0,0,0,12-12V12A12,12,0,0,0,70.71,0ZM52.89,61.41a21.65,21.65,0,0,1-13,3.87H24.42V17.42H39.54c5.25,0,9.37,1,12.33,3A9.78,9.78,0,0,1,56.32,29a8.4,8.4,0,0,1-2.58,6,14.8,14.8,0,0,1-7.09,3.83V39a15.93,15.93,0,0,1,8.54,4.34A10.66,10.66,0,0,1,58.29,51,12.11,12.11,0,0,1,52.89,61.41Z"/></g></g></svg>