<svg xmlns="http://www.w3.org/2000/svg" viewBox="0 0 344.91 238.06"><defs><style>.cls-1{fill:#fceaec;}.cls-2{fill:#5e72b6;}.cls-3{fill:none;stroke:#1d1d1b;stroke-miterlimit:10;}</style></defs><g id="Calque_2" data-name="Calque 2"><g id="Layer_1" data-name="Layer 1"><path class="cls-1" d="M220.76,204.69c99.82-58.37,137-190.27,120.32-203.25C340.29.83,339.42.51,325,.21c-16.8-.34-31.12-.22-42.12,0H.2c1,47.42.59,82.08,0,105.66C-.12,118.68,0,137.78.2,176c.15,26.9.34,28.42,1.29,30.69C16.55,242.44,134.81,255,220.76,204.69Z"/><path class="cls-2" d="M99,211.38c9.52,3.66,22,8.27,38.18,6.25,7.31-.91,21.95-3,32.87-15.27,16.29-18.23,10.95-44.16,10.33-47-2-12.88-7-33-21.19-52C135.14,71.13,86.9,45,59.24,63.38,42.47,74.53,39.05,98.22,37.11,111.63c-1.34,9.29-4.51,40.73,15.35,68C66.66,199.07,85.16,206.06,99,211.38Z"/><path class="cls-3" d="M36.94,80.55c19.27,1.94,26.71,7.31,29.81,12.14.75,1.16,3.13,5.23,3.91,4.9s-.34-3.18-.84-7.51c-.18-1.59-.83-7.27.12-11,1.65-6.51,8.79-10,12.48-11.73,11.26-5.43,24-3.63,32.62,1.21,4.56,2.56,8.77,6.44,8.21,7.51-.43.82-3.31-.79-8-.56-.75,0-8.33.53-12.69,6-1.68,2.13-3.4,5.66-2.26,7,.37.43,1.12.73,2.88.46,4.94-.77,7.71-4.47,10.92-7.09A26.42,26.42,0,0,1,127,76.3c10.19-1.26,17.68,6.35,25,13.76.6.6,1.52,1.59,1.24,2.35-.59,1.62-6,.42-12.84.45a59.12,59.12,0,0,0-17,2.65c-5.83,1.69-14.37,5.14-14,7.54a1.66,1.66,0,0,0,1,1.16c1.41.58,3.12-1.27,5.27-2.74,1.18-.8,3.12-1.51,7-2.93,12.35-4.54,22.67-8.33,31.1-4.12,2.14,1.07,3.66,2.41,6.29,4.72a38.8,38.8,0,0,1,8.41,10c.45.81,4.14,7.5,2.49,8.92-.67.57-2,.07-2.44-.11-4.87-1.81-10.36-.78-15.54-1.22-4.06-.34-9.17.16-19.38,1.16,0,0-15.73,1.55-16.21,4.38a2.52,2.52,0,0,0,.08,1.11,3.43,3.43,0,0,0,2,1.84c3.5,1.53,8.56-.62,8.56-.62,8.68-3.69,38.89-6.33,45.75,4.09,1.44,2.19,2.19,6,3.69,13.7.31,1.61.52,3.3.93,6.69.49,4.05.4,4.35.18,4.56-1.65,1.59-7.37-4.74-17.82-8-2.14-.66-7-.93-16.88-1.49-1.26-.07-5.06-.24-8.09,2-1.23.91-1.45,1.56-1.48,2-.2,2.24,4.18,4.17,4.67,4.38a12.94,12.94,0,0,0,4.23,1c1,.06,5.45.87,14.42,2.48A76.74,76.74,0,0,1,174,161a11.81,11.81,0,0,1,5.26,3.85c1.53,2.13,1.77,4.29,2,6.85A38.59,38.59,0,0,1,179.79,185c-.15.63-.53,2.09-.93,4.16a38.57,38.57,0,0,0-.71,4.71,14.88,14.88,0,0,0,.59,6.92,5.73,5.73,0,0,0,1.18,2.09c1.21,1.31,2.62,1.4,2.59,1.92,0,.13-.1.36-2.7,1.22q-7.51,2.49-15.22,4.29c-4.57,1.09-10.23,3-14.82,1.08a8,8,0,0,1-1.19-.59,11.37,11.37,0,0,1-3.93-4.25c-2.39-4.1-3.58-6.15-4.07-7.15-3.45-7.15-5.18-10.72-5.66-13a45.93,45.93,0,0,0-2.09-7,7.91,7.91,0,0,0-2.55-3.76,4.14,4.14,0,0,0-3-1.08c-1.9.29-2.88,2.61-3.23,3.43-.92,2.16-.71,4.19-.35,7.41a43.17,43.17,0,0,0,.72,4.29c1.69,7.41,2.54,11.11,4.6,15.65,1.63,3.6,2.45,5.4,4.24,7,2.25,1.93,5,2.85,4.81,3.71,0,.15-.17.34-1.67.72a23.34,23.34,0,0,1-6.24.73c-1,0-1.86-.08-2.16-.11a30.74,30.74,0,0,1-6.95-1.47c-3.37-1.11-5.49-1.81-7.55-3.57s-3-3.76-4.44-6.87A42.24,42.24,0,0,1,105.65,193a54.58,54.58,0,0,1,0-12,88.5,88.5,0,0,1,2-14,30.43,30.43,0,0,0,.5-8.85,8.23,8.23,0,0,0-.81-2.9,4.42,4.42,0,0,0-1.9-2.28,3.7,3.7,0,0,0-2.57-.19c-2.43.63-3.57,3.49-4,4.64-.62,1.58-.76,2.86-.91,7.71-.1,3.1-.15,4.65-.14,6.34a114.68,114.68,0,0,0,.47,12.9,95.76,95.76,0,0,0,1.63,9.75c.69,3.4,1.28,5.63,2.47,10.08a22.14,22.14,0,0,0,1.56,4.76c.79,1.55,1.65,2.57,1.34,2.94s-1,0-2.38-.56c-1.09-.42-3.69-1.53-4.41-1.7l-.12,0a2.51,2.51,0,0,1-.92-.48c-.68-.53-11.27-5.36-16.38-9.07a14.07,14.07,0,0,1-3.46-3.49c-.07-.11-.32-.47-.61-1a21.07,21.07,0,0,1-2.2-6.2,34.59,34.59,0,0,1-.92-7.41,48,48,0,0,1,.4-5.69,87.52,87.52,0,0,1,1.32-9.24c.56-2.73,1.13-4.75,1.93-7.55.63-2.2,1-3.47,1.62-5.27,1.12-3.18,2.49-6.45,2.49-6.45.33-.79.62-1.6,1-2.39.73-1.73,1.24-2.74,1.1-4a2.15,2.15,0,0,0-.52-1.26,1.81,1.81,0,0,0-1-.55c-1-.17-1.87.81-2.19,1.17a5.78,5.78,0,0,0-1.27,2.65c-3,16.06-10.32,31.85-9.13,48.15.06.93.28,3.47-.84,4-1.27.62-3.76-1.85-8.73-6.81-1.54-1.53-3.34-3.41-5.32-5.77a41,41,0,0,1-2.7-3.39,22.32,22.32,0,0,1-3.6-8.88c-.2-1.6-.18-3.67,2.31-10.33,3.87-10.37,7.48-20,12.47-23.14.52-.33,2.38-1.41,2.59-3.14a2.59,2.59,0,0,0-1.21-2.66c-1.32-.45-3.14,1.72-4.24,3.05-8.79,10.64-16.26,22.36-17.45,26.05-.32,1-.84,1.88-1.22,2.83-.21.51-.77,1.91-1.23,1.86a.62.62,0,0,1-.23-.09.89.89,0,0,1-.34-.56c-.37-1.54-3.42-3.68-4.15-16.51-.36-6.36-.54-9.54.2-11.38,1.66-4.1,5.11-6.73,11.3-11.45,4.25-3.24,8.09-5.5,7.56-7.37a2.14,2.14,0,0,0-1.17-1.18c-2.58-1.39-6.35,1.07-9.44,3.09s-4.51,3-5.4,4.51a36.94,36.94,0,0,1-3.83,5.56,1.11,1.11,0,0,1-.82.43.8.8,0,0,1-.38-.16,1.27,1.27,0,0,1-.43-.54c-.14-.32-4.26-14,1.94-23.22,8.21-12.24,32.38-7.6,36-6.92,21.36,4,34.06,23.42,60,59.92,10.5,14.8,22.6,33.78,46.61,43.68,2,.81,3.6,1.39,4.68,1.76"/></g></g></svg>