<svg xmlns="http://www.w3.org/2000/svg" viewBox="0 0 347.64 278.31"><defs><style>.cls-1{fill:#fceaec;}.cls-2{fill:none;stroke:#1d1d1b;stroke-miterlimit:10;}</style></defs><g id="Calque_2" data-name="Calque 2"><g id="Layer_1" data-name="Layer 1"><path class="cls-1" d="M347.22,11.82A55,55,0,0,0,326.1,1.41c-28.5-6.8-58.4,12.24-74.74,31.21s-11.87,25-34.66,68.48a161.87,161.87,0,0,1-22.95,32.57c-14.1,15.88-27.64,31.12-49,37.69-21.59,6.64-33.28-1.09-63,10.85-18.48,7.41-25.72,15.11-30.2,26.31-5.75,14.37-2.71,23.88-9.36,35.1a23.33,23.33,0,0,1-6.93,7.69c-6.75,4.57-12,5.22-17.15,7.22C12.73,260.6,5.92,265.43,0,277.67l25,.64H347.63c0-39.65,0-84.8,0-120.48,0-19.33,0-29.93,0-45.67C347.58,69.24,347.38,34.55,347.22,11.82Z"/><path class="cls-2" d="M257.35,254.1c-4.7-12.26-3.73-18.41-1.75-21.76.48-.8,2.21-3.49,1.77-3.86s-1.82,1.18-4.29,2.8c-.91.59-4.14,2.72-6.7,3.29-4.45,1-8.71-2.29-10.92-4a24.51,24.51,0,0,1-9.22-20.13c.16-3.54,1.22-7.27,2-7.26.63,0,.54,2.25,2.1,5,.25.44,2.86,4.88,7.53,5.84,1.8.37,4.46.34,4.92-.77.15-.35.11-.89-.6-1.88-2-2.75-5.06-3.31-7.62-4.45a17.87,17.87,0,0,1-7.32-6.08c-3.87-5.79-1.55-12.65.7-19.33.19-.55.5-1.41,1-1.48,1.16-.14,2.08,3.5,4.19,7.65a40.25,40.25,0,0,0,6.79,9.48c2.81,3,7.5,7.14,8.85,6.2a1.14,1.14,0,0,0,.39-1c-.08-1-1.72-1.51-3.27-2.37a25.57,25.57,0,0,1-3.91-3.33c-6.52-6.1-12-11.2-12-17.59a19.39,19.39,0,0,1,.93-5.24,26.19,26.19,0,0,1,3.48-8.14c.35-.52,3.27-4.8,4.64-4.23.55.23.64,1.16.68,1.51.38,3.5,2.69,6.51,4,9.78,1,2.57,2.9,5.51,6.62,11.39,0,0,5.74,9.05,7.6,8.48a1.79,1.79,0,0,0,.65-.39,2.34,2.34,0,0,0,.5-1.77c-.14-2.59-3-5-3-5-4.88-4.14-15.7-21.62-11.48-29,.89-1.55,3-3.17,7.16-6.42.89-.68,1.85-1.33,3.77-2.61,2.3-1.53,2.51-1.56,2.71-1.5,1.47.52-.62,5.92.62,13.22.26,1.5,1.59,4.56,4.25,10.68a8.63,8.63,0,0,0,3.68,4.29c.92.47,1.38.4,1.65.3,1.42-.57,1.25-3.81,1.22-4.17a9,9,0,0,0-.66-2.88c-.26-.6-1.14-3.57-2.9-9.49a52.27,52.27,0,0,1-2-11.44,8.14,8.14,0,0,1,.73-4.36,8.76,8.76,0,0,1,3.53-3.32A26.41,26.41,0,0,1,277,135.7c.43-.09,1.43-.31,2.81-.7a28.1,28.1,0,0,0,3.06-1,10,10,0,0,0,4-2.46,4.06,4.06,0,0,0,.91-1.36c.42-1.13,0-2,.37-2.16.08,0,.25,0,1.56,1.27q3.79,3.79,7.25,7.91c2,2.43,4.91,5.29,5.17,8.64a5.91,5.91,0,0,1,0,.91,7.75,7.75,0,0,1-1.37,3.67c-1.76,2.7-2.64,4.05-3.09,4.65-3.27,4.27-4.91,6.4-6.13,7.38a32.11,32.11,0,0,0-3.61,3.41,5.43,5.43,0,0,0-1.5,2.69,2.86,2.86,0,0,0,.26,2.14c.76,1.06,2.46.95,3.06.91,1.59-.1,2.76-.84,4.59-2.05a25.45,25.45,0,0,0,2.39-1.75c4-3.28,5.95-4.92,8.07-7.55,1.68-2.09,2.52-3.13,2.91-4.69.48-2,.19-3.91.78-4.05.1,0,.26,0,.94.79a15.94,15.94,0,0,1,2.35,3.56c.31.64.52,1.15.59,1.34a20.55,20.55,0,0,1,1.23,4.66c.36,2.38.58,3.88.15,5.66s-1.35,3-2.8,4.79a28.75,28.75,0,0,1-6.5,5.86,36.17,36.17,0,0,1-7.29,3.66,60.77,60.77,0,0,1-9.07,3.07,20.61,20.61,0,0,0-5.51,2.39,5.69,5.69,0,0,0-1.51,1.38,3,3,0,0,0-.8,1.84,2.58,2.58,0,0,0,.67,1.62c1.13,1.28,3.2,1.09,4,1,1.15-.1,2-.41,4.95-1.8,1.9-.88,2.86-1.33,3.88-1.85a77,77,0,0,0,7.67-4.22,64.1,64.1,0,0,0,5.4-4c1.85-1.46,3-2.5,5.35-4.57a15.75,15.75,0,0,0,2.41-2.4c.69-1,1.05-1.78,1.37-1.71s.28.58.39,1.61c.07.79.19,2.7.31,3.19,0,0,0,0,0,.08a1.62,1.62,0,0,1,0,.7c-.11.58.19,8.47-.49,12.69a9.61,9.61,0,0,1-1.06,3.16c0,.08-.19.34-.41.67a14.13,14.13,0,0,1-3.08,3.22,23.44,23.44,0,0,1-4.21,2.82,29.6,29.6,0,0,1-3.56,1.49,58.84,58.84,0,0,1-6,2c-1.82.49-3.22.76-5.16,1.13-1.53.29-2.41.46-3.69.63-2.26.29-4.66.46-4.66.46-.58,0-1.16.11-1.74.15a5.43,5.43,0,0,0-2.75.56,1.43,1.43,0,0,0-.61.69,1.3,1.3,0,0,0,0,.76c.21.66,1.07.89,1.38,1a3.88,3.88,0,0,0,2,0c10.63-3.11,22.44-3.47,31.94-9.16.54-.32,2-1.23,2.69-.72s0,2.85-1.46,7.37c-.46,1.4-1,3.06-1.87,5a25.31,25.31,0,0,1-1.24,2.67,15,15,0,0,1-4.27,4.89c-.91.61-2.17,1.23-7,1.76-7.46.81-14.41,1.58-17.82-.49a3.34,3.34,0,0,0-2.69-.62c-.69.25-1.32.95-1.24,1.55.14.93,2,1.38,3.14,1.63,9.13,2.08,18.51,3,21.1,2.62.69-.1,1.39-.06,2.09-.12.37,0,1.39-.12,1.5.17a.44.44,0,0,1,0,.17.61.61,0,0,1-.23.38c-.82.7-1.19,3.2-8.73,7.55-3.74,2.16-5.61,3.24-6.95,3.35-3,.25-5.64-1-10.38-3.35-3.26-1.59-5.8-3.22-6.77-2.33a1.46,1.46,0,0,0-.36,1.07c-.05,2,2.59,3.52,4.75,4.77s3.16,1.84,4.38,1.9a25.31,25.31,0,0,1,4.54.62c.11,0,.42.13.51.37a.72.72,0,0,1,0,.28.91.91,0,0,1-.2.42c-.15.19-7.16,6.85-14.65,5.91C263.61,246,259,230,258.34,227.54c-4.1-14.15,3.78-27.77,18-54.6,5.75-10.87,13.55-24,12.21-41.56-.1-1.43-.25-2.6-.36-3.37"/></g></g></svg>