<svg xmlns="http://www.w3.org/2000/svg" viewBox="0 0 77.95 86.95"><defs><style>.cls-1{fill:#5e72b6;}</style></defs><g id="Calque_2" data-name="Calque 2"><g id="Layer_1" data-name="Layer 1"><path class="cls-1" d="M0,0Q3.78,39.09,7.57,78.19L39.11,87l31.35-8.76Q74.21,39.08,78,0ZM65.94,24.85l-22.06,10,20.72.22-2,31.42-23,6.24L17.36,67.19q-.88-7.92-1.78-15.82H25.83c.3,2.67.59,5.34.89,8l12.7,2.89,12.48-4q.45-6.57.89-13.14l-37.66.44c-.29-3.56-.59-7.13-.89-10.69l23.84-10.7-24.73.22L11.79,14.16l54.37.22Q66,19.62,65.94,24.85Z"/></g></g></svg>