<svg xmlns="http://www.w3.org/2000/svg" viewBox="0 0 423.77 323.36"><defs><style>.cls-1{fill:#fceaec;}.cls-2{fill:none;stroke:#1d1d1b;stroke-miterlimit:10;}</style></defs><g id="Calque_2" data-name="Calque 2"><g id="Layer_1" data-name="Layer 1"><path class="cls-1" d="M389.23,275.28C450.52,191,424.56,36.16,355.87,6.87c-29.58-12.61-78.47-8.7-101.43,18.7C229,56,232.36,86.62,196.83,126.62c-14.1,15.88-27.64,31.11-49,37.69-21.6,6.64-33.28-1.09-63,10.85-18.48,7.41-25.72,15.11-30.21,26.31-5.74,14.37-2.7,23.88-9.35,35.1a23.44,23.44,0,0,1-6.93,7.69c-7.07,4.79-12.69,5.65-17.15,7.22C6.58,256.62-4,279.7,1.48,292c3.92,8.76,15.79,11.61,23.07,12.92C328,359.58,389.23,275.28,389.23,275.28Z"/><path class="cls-2" d="M260.43,247.05c-4.71-12.26-3.73-18.41-1.75-21.76.47-.8,2.21-3.49,1.77-3.86s-1.82,1.18-4.29,2.8c-.91.59-4.14,2.72-6.71,3.29-4.44,1-8.71-2.29-10.91-4a24.52,24.52,0,0,1-9.22-20.13c.16-3.54,1.22-7.27,2-7.26.63,0,.53,2.25,2.1,5,.25.44,2.85,4.88,7.52,5.84,1.8.37,4.47.34,4.93-.77.15-.35.1-.9-.6-1.88-2-2.75-5.06-3.31-7.62-4.45a17.87,17.87,0,0,1-7.32-6.08c-3.87-5.79-1.56-12.65.7-19.34.19-.54.5-1.4,1-1.47,1.17-.14,2.09,3.5,4.2,7.64a40.14,40.14,0,0,0,6.79,9.49c2.8,3,7.5,7.14,8.85,6.2a1.15,1.15,0,0,0,.39-1c-.08-1-1.72-1.5-3.27-2.36a25.24,25.24,0,0,1-3.91-3.34c-6.52-6.09-12-11.19-12-17.58a20,20,0,0,1,.94-5.25,26.2,26.2,0,0,1,3.48-8.13c.35-.52,3.27-4.8,4.64-4.23.55.23.64,1.16.67,1.51.39,3.5,2.7,6.51,4,9.78,1,2.57,2.89,5.51,6.62,11.39,0,0,5.74,9.05,7.6,8.48a1.79,1.79,0,0,0,.65-.39,2.34,2.34,0,0,0,.5-1.77c-.14-2.59-3-5-3-5-4.88-4.14-15.7-21.62-11.48-29,.88-1.54,3-3.16,7.16-6.41.88-.68,1.85-1.33,3.77-2.61,2.3-1.53,2.51-1.56,2.71-1.5,1.47.52-.63,5.92.62,13.22.26,1.5,1.59,4.56,4.25,10.68a8.59,8.59,0,0,0,3.67,4.29c.93.47,1.39.4,1.66.3,1.42-.57,1.24-3.81,1.22-4.17a9,9,0,0,0-.66-2.88c-.26-.61-1.14-3.57-2.91-9.49a52.52,52.52,0,0,1-2-11.44,8,8,0,0,1,.73-4.36,8.7,8.7,0,0,1,3.53-3.32,26.41,26.41,0,0,1,8.51-3.17c.43-.09,1.43-.31,2.8-.7a27.57,27.57,0,0,0,3.07-1,10,10,0,0,0,4-2.46,4.06,4.06,0,0,0,.91-1.36c.42-1.13,0-2,.37-2.16.08,0,.25,0,1.56,1.27q3.79,3.8,7.25,7.91c2.05,2.43,4.91,5.29,5.17,8.64a5.91,5.91,0,0,1,0,.91,7.64,7.64,0,0,1-1.38,3.67c-1.75,2.7-2.63,4-3.08,4.64-3.28,4.28-4.91,6.41-6.13,7.39A32.11,32.11,0,0,0,291,158.8a5.43,5.43,0,0,0-1.5,2.69,2.86,2.86,0,0,0,.26,2.14c.76,1.06,2.46,1,3.06.91,1.59-.1,2.75-.85,4.59-2a24.72,24.72,0,0,0,2.38-1.75c4-3.28,5.95-4.92,8.07-7.55,1.69-2.09,2.53-3.14,2.92-4.69.48-1.95.19-3.91.78-4.05.1,0,.26,0,.94.79a16.32,16.32,0,0,1,2.35,3.56c.31.64.52,1.15.59,1.34a20.55,20.55,0,0,1,1.23,4.66c.36,2.38.58,3.88.14,5.66s-1.34,3-2.8,4.79a28.64,28.64,0,0,1-6.49,5.86,36.17,36.17,0,0,1-7.29,3.66,60.77,60.77,0,0,1-9.07,3.07,20.47,20.47,0,0,0-5.51,2.39,5.69,5.69,0,0,0-1.51,1.38,3,3,0,0,0-.8,1.84,2.58,2.58,0,0,0,.67,1.62c1.13,1.28,3.2,1.09,4,1,1.15-.11,2-.41,5-1.8,1.9-.88,2.86-1.33,3.88-1.85a77,77,0,0,0,7.67-4.22,64.1,64.1,0,0,0,5.4-4c1.85-1.46,3-2.5,5.35-4.57a15.75,15.75,0,0,0,2.41-2.4c.69-.95,1.05-1.78,1.37-1.71s.28.58.38,1.61c.08.79.2,2.7.32,3.19l0,.08a1.62,1.62,0,0,1,0,.7c-.12.58.19,8.47-.5,12.69a9.31,9.31,0,0,1-1,3.16c-.05.08-.19.34-.41.67a14.13,14.13,0,0,1-3.08,3.22,23.44,23.44,0,0,1-4.21,2.82,29.6,29.6,0,0,1-3.56,1.49,58.84,58.84,0,0,1-6,2c-1.82.49-3.22.76-5.16,1.13-1.53.29-2.41.46-3.69.63-2.26.29-4.66.46-4.66.46-.58,0-1.16.11-1.74.15a5.43,5.43,0,0,0-2.75.56,1.43,1.43,0,0,0-.61.69,1.3,1.3,0,0,0,0,.76c.21.66,1.06.89,1.38,1a3.88,3.88,0,0,0,2,0c10.63-3.11,22.44-3.47,31.94-9.16.54-.32,2-1.23,2.68-.72s0,2.85-1.45,7.37c-.46,1.4-1.05,3.06-1.87,5a27.54,27.54,0,0,1-1.24,2.67,15,15,0,0,1-4.27,4.89c-.91.61-2.17,1.23-7,1.76-7.46.81-14.41,1.58-17.82-.5a3.38,3.38,0,0,0-2.69-.61c-.69.25-1.32,1-1.24,1.55.13.93,2,1.37,3.14,1.63,9.13,2.08,18.5,3,21.1,2.62.69-.1,1.39-.06,2.09-.12.37,0,1.39-.12,1.5.17a.44.44,0,0,1,0,.17.61.61,0,0,1-.23.38c-.82.7-1.19,3.2-8.73,7.55-3.75,2.16-5.62,3.24-6.95,3.35-3,.25-5.64-1-10.38-3.35-3.26-1.59-5.8-3.22-6.77-2.33a1.42,1.42,0,0,0-.36,1.07c-.06,2,2.58,3.52,4.75,4.77s3.16,1.84,4.38,1.9a25.31,25.31,0,0,1,4.54.62.81.81,0,0,1,.51.37.72.72,0,0,1,0,.28.91.91,0,0,1-.2.42c-.15.18-7.16,6.85-14.65,5.91-9.92-1.23-14.49-17.29-15.19-19.7-4.09-14.15,3.79-27.77,18-54.6,5.76-10.87,13.56-24,12.22-41.56-.11-1.43-.25-2.6-.36-3.37"/></g></g></svg>