<svg xmlns="http://www.w3.org/2000/svg" viewBox="0 0 63.08 62"><defs><style>.cls-1{fill:#5e72b6;}</style></defs><g id="Calque_2" data-name="Calque 2"><g id="Layer_1" data-name="Layer 1"><path class="cls-1" d="M31.54,0a31.54,31.54,0,0,0-8.35,62c0-4.06,0-7.68,0-8.63-3.53.63-6.57.16-8.22-.95a5.42,5.42,0,0,1-1.88-1.79,19.56,19.56,0,0,1-1-2.19A6.65,6.65,0,0,0,11.51,47a5.46,5.46,0,0,0-1.3-1.28c-1.68-1.32-2.43-1.52-2.58-2.29a1,1,0,0,1,.14-.86.9.9,0,0,1,.62-.29,7.19,7.19,0,0,1,3.74.94,7.77,7.77,0,0,1,2.39,2.42,6.22,6.22,0,0,0,2.58,2.61,10.82,10.82,0,0,0,3.67.62c1.38.12,1.85,0,2.19-.27s.2-.84.55-1.74c.59-1.57,2-2.11,1.85-2.5s-1-.15-1.42-.1c-2.17.23-3.94-.72-5.83-1.74a13.4,13.4,0,0,1-4.94-4.37,15,15,0,0,1-2.31-8.49,16.5,16.5,0,0,1,1.69-8.22A15.26,15.26,0,0,1,13.7,19.6a4.42,4.42,0,0,1-.23-.56,7.18,7.18,0,0,1-.28-1.47,21.67,21.67,0,0,1,.17-3.88c.43-1.3.61-2.69,1.61-3a1.73,1.73,0,0,1,1.08,0,11.91,11.91,0,0,1,3.07,1.08,17.69,17.69,0,0,1,2.63,1.59,5.3,5.3,0,0,0,.88.57,3.91,3.91,0,0,0,1,.38c.66.12,1-.15,2.15-.49,0,0,.15,0,1.51-.37A17.08,17.08,0,0,1,31.5,13a28.45,28.45,0,0,1,4.38.37c1.06.17,2,.37,2.63.54a2,2,0,0,0,1.22.14,2.49,2.49,0,0,0,.73-.33,8,8,0,0,0,1.2-.79A7,7,0,0,1,44,11.82l1.74-.61A5,5,0,0,1,48,10.75a1.62,1.62,0,0,1,.92.34,1.53,1.53,0,0,1,.48.68,12.65,12.65,0,0,1,.6,3.5A9.66,9.66,0,0,1,50,17.36a6.59,6.59,0,0,1-.46,1.72l-.26.65.52.63.54.64a10.65,10.65,0,0,1,1.4,2.47,12.44,12.44,0,0,1,.69,5.13,21.69,21.69,0,0,1-.4,4.43,13.86,13.86,0,0,1-1.66,5,12.31,12.31,0,0,1-5.06,4.3,22.8,22.8,0,0,1-5.71,1.92,5.47,5.47,0,0,1-.82.13c-.49,0-.75-.07-.81,0s0,.27.58.78a4.64,4.64,0,0,1,.61.94A4.81,4.81,0,0,1,39.67,48c0,1.89,0,8,0,14A31.54,31.54,0,0,0,31.54,0Z"/></g></g></svg>