<svg xmlns="http://www.w3.org/2000/svg" viewBox="0 0 77.23 75.42"><defs><style>.cls-1{fill:#5e72b6;}</style></defs><g id="Calque_2" data-name="Calque 2"><g id="Layer_1" data-name="Layer 1"><polygon class="cls-1" points="33.9 25.94 32.25 31.05 28.98 40.65 38.81 40.65 35.51 30.94 33.9 25.94"/><path class="cls-1" d="M65.23,0H12A12,12,0,0,0,0,12V63.42a12,12,0,0,0,12,12H65.23a12,12,0,0,0,12-12V12A12,12,0,0,0,65.23,0ZM43.46,54.32l-3.07-9h-13l-3.07,9h-6L30.15,21.1h7.5L49.49,54.32Zm15.39,0H53.23V30.08h5.62Zm0-27.58H53.18V21.1H58.9Z"/></g></g></svg>