<svg xmlns="http://www.w3.org/2000/svg" viewBox="0 0 80.78 101.14"><defs><style>.cls-1{fill:#5e72b6;}</style></defs><g id="Calque_2" data-name="Calque 2"><g id="Layer_1" data-name="Layer 1"><path class="cls-1" d="M48.59,22.05c-.49,8.52,2.24,16,8.77,20.59,6.63,4.43,14.72,4.19,22.34.47l.25.23C75.64,53.29,61.4,55.91,52.6,49.68A19.64,19.64,0,0,1,44,36.15c-.78-5.28.81-10.8,4.42-14.17l.13.07Z"/><path class="cls-1" d="M31.47,25.81c-3,13.67,1.2,27.3,12.25,34.92,10.05,6.94,24.69,8.46,34.87.68l1.06-.88a6.82,6.82,0,0,1,1.13-.85A6,6,0,0,1,80,60.86L79.19,62,77.35,64.2l-2,2.06c-14.36,13.35-36.17,10.79-46.68-6a30.07,30.07,0,0,1-3.37-24.37A23.84,23.84,0,0,1,31.3,25.71l.17.1Z"/><path class="cls-1" d="M10.43,33.43c-2.52,12.92-1.85,24,4,34.13C23.55,82.19,41.77,91.68,59,88.45c7.32-1.3,13.69-4.28,20.22-8.57C74.79,90.11,64.84,97.66,53.8,100.14,30.53,105.55,4,88.27.43,64.51-1.29,53.19,2.19,41.25,10.1,33.25l.33.18Z"/><path class="cls-1" d="M6.82,5.81V18.29c0,.28,0,.64-.06,1.09a3.62,3.62,0,0,1-.37,1.32,2.91,2.91,0,0,1-1,1.09,3.36,3.36,0,0,1-1.92.46,5.07,5.07,0,0,1-.68,0,3.53,3.53,0,0,1-.66-.16l.23-1.92a3.31,3.31,0,0,0,.41.13,1.78,1.78,0,0,0,.44.06,1.28,1.28,0,0,0,1.19-.54,3.07,3.07,0,0,0,.33-1.58V5.81ZM4.26,1.89A1.45,1.45,0,0,1,4.71.82,1.45,1.45,0,0,1,5.78.37,1.47,1.47,0,0,1,6.85.82,1.45,1.45,0,0,1,7.3,1.89,1.47,1.47,0,0,1,6.85,3a1.47,1.47,0,0,1-1.07.45A1.45,1.45,0,0,1,4.71,3,1.47,1.47,0,0,1,4.26,1.89Z"/><path class="cls-1" d="M27.48,16.72h-9.4a8.57,8.57,0,0,1-3.27-.62,8.15,8.15,0,0,1-4.52-4.36,8.38,8.38,0,0,1-.66-3.35,8.48,8.48,0,0,1,.64-3.33A8.15,8.15,0,0,1,12.06,2.4,8.25,8.25,0,0,1,14.73.63,8.66,8.66,0,0,1,18.06,0a8.45,8.45,0,0,1,3.23.62,8.18,8.18,0,0,1,4.43,4.3,8,8,0,0,1,.65,3.23,8.63,8.63,0,0,1-.24,2,7.85,7.85,0,0,1-.71,1.88,6.73,6.73,0,0,1-1.18,1.57,5.5,5.5,0,0,1-1.6,1.1v0h4.84ZM18,14.65a6,6,0,0,0,2.45-.49,5.73,5.73,0,0,0,1.91-1.36,6.38,6.38,0,0,0,1.24-2A7.2,7.2,0,0,0,24,8.25a6.47,6.47,0,0,0-.45-2.42,5.87,5.87,0,0,0-1.25-2,6.07,6.07,0,0,0-1.91-1.31A5.88,5.88,0,0,0,18,2.07a5.74,5.74,0,0,0-2.39.49,5.92,5.92,0,0,0-3.16,3.26A6.12,6.12,0,0,0,12,8.2a7.16,7.16,0,0,0,.43,2.51,6.15,6.15,0,0,0,1.24,2,5.57,5.57,0,0,0,1.9,1.38A5.73,5.73,0,0,0,18,14.65Z"/><path class="cls-1" d="M39,16.72H36.88V15h-.05a3,3,0,0,1-1.36,1.42,4.49,4.49,0,0,1-2.23.54,4.7,4.7,0,0,1-1.52-.24A3.36,3.36,0,0,1,30.46,16a3.56,3.56,0,0,1-.86-1.3,4.9,4.9,0,0,1-.32-1.88v-7h2.07v6.45a3.62,3.62,0,0,0,.21,1.3,2.24,2.24,0,0,0,.55.87,2.1,2.1,0,0,0,.79.49,2.94,2.94,0,0,0,.94.15A3.27,3.27,0,0,0,35,14.86a2.47,2.47,0,0,0,1-.66,3.16,3.16,0,0,0,.65-1.14,5.25,5.25,0,0,0,.23-1.63V5.81H39Z"/><path class="cls-1" d="M43.65,12A2.75,2.75,0,0,0,44,13.33a3.31,3.31,0,0,0,.82,1A3.9,3.9,0,0,0,46,15a4.1,4.1,0,0,0,1.39.23A3.1,3.1,0,0,0,49,14.75a5.33,5.33,0,0,0,1.31-1.18l1.57,1.2A5.77,5.77,0,0,1,47.06,17a6.06,6.06,0,0,1-2.34-.44A4.94,4.94,0,0,1,43,15.35a5.21,5.21,0,0,1-1.12-1.82,6.4,6.4,0,0,1-.39-2.27A6,6,0,0,1,41.86,9,5.66,5.66,0,0,1,43,7.18,5.2,5.2,0,0,1,44.83,6a5.58,5.58,0,0,1,2.25-.44A5.39,5.39,0,0,1,49.54,6a4.86,4.86,0,0,1,1.64,1.32,5.44,5.44,0,0,1,.94,1.84,7.8,7.8,0,0,1,.28,2.09V12Zm6.54-1.65A4.22,4.22,0,0,0,50,9.1a2.77,2.77,0,0,0-.58-1,2.63,2.63,0,0,0-1-.67A3.61,3.61,0,0,0,47,7.19a3.25,3.25,0,0,0-1.4.29,3.34,3.34,0,0,0-1.75,1.77,2.86,2.86,0,0,0-.24,1.12Z"/><path class="cls-1" d="M54.89,5.81H57V7.49h0a3.08,3.08,0,0,1,.55-.8,3.57,3.57,0,0,1,.78-.61,3.9,3.9,0,0,1,.93-.4,3.53,3.53,0,0,1,1-.15,2.65,2.65,0,0,1,.92.14L61.11,7.9l-.51-.11a2.73,2.73,0,0,0-.5,0,3,3,0,0,0-2.33.85,3.74,3.74,0,0,0-.8,2.65v5.48H54.89Z"/><path class="cls-1" d="M62.13,5.81h2.39l3.23,8.52h0l3.1-8.52h2.21L67.93,19.07a13.53,13.53,0,0,1-.57,1.31,4.17,4.17,0,0,1-.71,1,3,3,0,0,1-1,.64,3.81,3.81,0,0,1-1.44.23c-.3,0-.61,0-.93-.05a3.18,3.18,0,0,1-.9-.25l.25-1.89a3.21,3.21,0,0,0,1.24.26,2.15,2.15,0,0,0,.81-.13,1.56,1.56,0,0,0,.57-.37,2,2,0,0,0,.4-.56,6.56,6.56,0,0,0,.32-.74l.67-1.73Z"/></g></g></svg>