<svg xmlns="http://www.w3.org/2000/svg" viewBox="0 0 93.39 126.77"><defs><style>.cls-1{fill:none;stroke:#1d1d1b;stroke-miterlimit:10;}</style></defs><g id="Calque_2" data-name="Calque 2"><g id="Layer_1" data-name="Layer 1"><path class="cls-1" d="M32.63,126.6c-4.7-12.26-3.72-18.41-1.74-21.76.47-.81,2.21-3.49,1.77-3.86s-1.82,1.17-4.29,2.79c-.91.6-4.15,2.72-6.71,3.29-4.44,1-8.71-2.28-10.91-4A24.49,24.49,0,0,1,1.53,83c.16-3.54,1.22-7.27,2-7.26.63,0,.53,2.24,2.1,5,.25.44,2.85,4.88,7.52,5.84,1.8.37,4.46.33,4.93-.77.15-.36.1-.9-.6-1.88-2-2.76-5.06-3.31-7.63-4.45a17.92,17.92,0,0,1-7.31-6.09C-1.29,67.57,1,60.7,3.28,54c.18-.55.5-1.41,1-1.47,1.16-.14,2.08,3.5,4.2,7.64a40.14,40.14,0,0,0,6.78,9.48c2.81,3,7.51,7.14,8.85,6.2a1.13,1.13,0,0,0,.4-1c-.08-1-1.72-1.5-3.27-2.36a25.36,25.36,0,0,1-3.91-3.34c-6.52-6.1-12-11.19-12-17.58a20,20,0,0,1,.94-5.25,26.43,26.43,0,0,1,3.47-8.13c.36-.53,3.28-4.8,4.64-4.23.55.22.64,1.16.68,1.5.39,3.51,2.7,6.52,4,9.79,1,2.56,2.89,5.5,6.62,11.38,0,0,5.74,9.06,7.59,8.48a1.65,1.65,0,0,0,.65-.39A2.33,2.33,0,0,0,34.49,63c-.14-2.59-3-5-3-5C26.62,53.88,15.8,36.4,20,29.06c.89-1.54,3-3.17,7.17-6.41C28.06,22,29,21.32,31,20c2.3-1.53,2.51-1.57,2.7-1.5,1.47.51-.62,5.91.63,13.21.26,1.5,1.59,4.56,4.25,10.69a8.59,8.59,0,0,0,3.67,4.29c.93.47,1.39.4,1.65.29,1.42-.56,1.25-3.8,1.23-4.17A8.9,8.9,0,0,0,44.42,40c-.26-.61-1.15-3.57-2.91-9.49a52.8,52.8,0,0,1-2-11.44,8,8,0,0,1,.72-4.36,8.66,8.66,0,0,1,3.54-3.32A26.1,26.1,0,0,1,52.3,8.2c.42-.1,1.43-.31,2.8-.7a27.57,27.57,0,0,0,3.07-1,10.11,10.11,0,0,0,4-2.47,3.91,3.91,0,0,0,.91-1.35c.42-1.14,0-2,.37-2.16.08,0,.25,0,1.56,1.27C67.55,4.3,70,7,72.26,9.68c2.06,2.44,4.91,5.29,5.18,8.65a6.28,6.28,0,0,1,0,.9,7.69,7.69,0,0,1-1.37,3.68c-1.75,2.69-2.63,4-3.09,4.64-3.27,4.27-4.9,6.41-6.13,7.39a31.41,31.41,0,0,0-3.6,3.41A5.36,5.36,0,0,0,61.75,41,2.77,2.77,0,0,0,62,43.18c.75,1.06,2.46,1,3.06.91,1.59-.11,2.75-.85,4.59-2.05A29.06,29.06,0,0,0,72,40.29C76,37,78,35.37,80.11,32.74,81.79,30.65,82.64,29.6,83,28c.49-1.94.2-3.91.79-4,.1,0,.25,0,.94.79a16.33,16.33,0,0,1,2.35,3.55c.31.65.51,1.16.59,1.35a21.11,21.11,0,0,1,1.23,4.66c.35,2.38.58,3.87.14,5.66s-1.35,3-2.8,4.78a28.62,28.62,0,0,1-6.49,5.87,36.43,36.43,0,0,1-7.29,3.66,59.63,59.63,0,0,1-9.07,3.06,20.86,20.86,0,0,0-5.51,2.39,5.69,5.69,0,0,0-1.51,1.38,3,3,0,0,0-.8,1.85,2.54,2.54,0,0,0,.67,1.61c1.12,1.28,3.2,1.1,4,1,1.14-.1,2-.4,4.94-1.79C67.15,63,68.1,62.51,69.12,62a79.14,79.14,0,0,0,7.67-4.22,66.57,66.57,0,0,0,5.41-4c1.85-1.46,3-2.5,5.34-4.58A14.9,14.9,0,0,0,90,46.84c.7-1,1.06-1.79,1.37-1.71s.29.58.39,1.6c.08.8.2,2.71.32,3.2,0,0,0,0,0,.08a1.74,1.74,0,0,1,0,.7c-.11.57.19,8.46-.49,12.68a9.41,9.41,0,0,1-1.06,3.17,7,7,0,0,1-.4.67A14.74,14.74,0,0,1,87,70.45a22.91,22.91,0,0,1-4.2,2.82,33.66,33.66,0,0,1-3.57,1.49,57.91,57.91,0,0,1-6,2c-1.83.5-3.23.77-5.16,1.14-1.53.29-2.41.46-3.69.62-2.27.3-4.67.46-4.67.46-.58,0-1.15.12-1.73.16a5.51,5.51,0,0,0-2.76.55,1.45,1.45,0,0,0-.6.7,1.15,1.15,0,0,0,0,.76c.21.66,1.06.88,1.38,1a3.89,3.89,0,0,0,2,0C68.58,79,80.39,78.63,89.89,72.94c.55-.33,2-1.23,2.69-.72s0,2.84-1.46,7.37c-.46,1.4-1,3.06-1.87,5A27.86,27.86,0,0,1,88,87.24a15.14,15.14,0,0,1-4.27,4.89c-.91.61-2.17,1.23-7,1.75-7.46.82-14.42,1.58-17.82-.49a3.36,3.36,0,0,0-2.69-.61c-.69.25-1.32,1-1.24,1.54.13.94,2,1.38,3.14,1.64,9.13,2.08,18.5,3,21.1,2.62.68-.11,1.39-.07,2.08-.12.38,0,1.39-.12,1.5.17a.28.28,0,0,1,0,.17.65.65,0,0,1-.23.38c-.83.69-1.19,3.19-8.74,7.55-3.74,2.16-5.61,3.24-6.94,3.35-3,.25-5.64-1-10.39-3.35-3.26-1.59-5.79-3.22-6.77-2.33a1.46,1.46,0,0,0-.36,1.07c-.05,2,2.59,3.51,4.76,4.77s3.16,1.84,4.37,1.89a24.72,24.72,0,0,1,4.54.63.73.73,0,0,1,.51.37.44.44,0,0,1,0,.27.85.85,0,0,1-.19.43c-.15.18-7.17,6.84-14.65,5.91-9.92-1.24-14.49-17.29-15.19-19.7-4.09-14.15,3.79-27.77,18-54.6,5.75-10.87,13.55-24,12.22-41.56-.11-1.43-.26-2.6-.36-3.37"/></g></g></svg>