<svg xmlns="http://www.w3.org/2000/svg" viewBox="0 0 44.82 44.82"><defs><style>.cls-1{fill:#5e72b6;}</style></defs><g id="Calque_2" data-name="Calque 2"><g id="Layer_1" data-name="Layer 1"><path class="cls-1" d="M22.41,0A22.41,22.41,0,1,0,44.82,22.41,22.41,22.41,0,0,0,22.41,0ZM15.75,32.2H13.2v-14h2.55ZM14.42,15.78a1.52,1.52,0,0,1-1.54-1.57,1.56,1.56,0,0,1,1.6-1.59A1.51,1.51,0,0,1,16,14.21,1.5,1.5,0,0,1,14.42,15.78ZM31.94,32.2H29.39V24.11c0-2.26-.84-4.15-3.25-4.15a3.76,3.76,0,0,0-3.6,3.8V32.2H20V22c0-1.45,0-2.64-.12-3.8h2.26l.15,2.32h.06A5.16,5.16,0,0,1,27,17.84c1.94,0,5,1.16,5,6Z"/></g></g></svg>