<svg xmlns="http://www.w3.org/2000/svg" viewBox="0 0 361.12 250.26"><defs><style>.cls-1{fill:none;stroke:#5e72b6;stroke-miterlimit:10;stroke-width:4px;}.cls-2{font-size:146.89px;fill:#1d1d1b;font-family:CaviarDreams, Caviar Dreams;}</style></defs><g id="Calque_2" data-name="Calque 2"><g id="Layer_1" data-name="Layer 1"><path class="cls-1" d="M273.52,9.18c-2.79,31.22-11.46,43.41-19.34,48.58-1.89,1.23-8.53,5.21-8,6.46.46,1,5.22-.64,12.34-1.57,2.61-.34,11.92-1.56,18.12-.13,10.74,2.48,16.56,13.94,19.57,19.86,9.17,18.07,6.48,38.76-1.3,52.81-4.12,7.45-10.4,14.36-12.17,13.49-1.37-.67,1.22-5.38.74-12.91-.08-1.21-1-13.45-10.21-20.35-3.53-2.66-9.37-5.35-11.56-3.45-.7.61-1.18,1.82-.69,4.67,1.37,8,7.51,12.35,11.89,17.46a42.13,42.13,0,0,1,9.49,20.65c2.28,16.45-10.07,28.8-22.1,40.83-1,1-2.58,2.51-3.84,2.08-2.68-.9-.82-9.68-1-20.77a94.51,94.51,0,0,0-4.71-27.42c-2.92-9.38-8.77-23.11-12.71-22.48a2.74,2.74,0,0,0-1.89,1.67c-.92,2.3,2.16,5,4.61,8.46,1.35,1.89,2.56,5,5,11.23,7.73,19.87,14.18,36.45,7.44,50.21-1.71,3.5-3.88,6-7.62,10.32-7.67,8.84-14.45,12.85-16.24,13.88-1.33.76-12.25,6.92-14.62,4.29-1-1.07-.16-3.17.13-4,2.87-7.93,1-16.79,1.67-25.18.48-6.58-.46-14.83-2.33-31.33,0,0-2.88-25.4-7.54-26.09a4.44,4.44,0,0,0-1.84.16,5.62,5.62,0,0,0-3,3.27c-2.44,5.71,1.2,13.84,1.2,13.84,6.25,13.93,11.25,62.72-5.75,74.12-3.57,2.4-9.87,3.72-22.45,6.37-2.65.56-5.43.94-11,1.7-6.65.91-7.15.76-7.5.42-2.65-2.63,7.65-12.07,12.69-29,1-3.49,1.39-11.45,2.1-27.37.09-2,.28-8.18-3.45-13-1.52-2-2.6-2.3-3.28-2.35-3.7-.25-6.77,6.89-7.11,7.69a21.11,21.11,0,0,0-1.61,6.88c-.08,1.56-1.31,8.84-3.76,23.39a124.28,124.28,0,0,1-7.85,26.65c-1.17,2.73-2.74,6.06-6.22,8.61s-7,3-11.23,3.48c-8.71,1-16.65-.8-21.93-2-1-.24-3.46-.81-6.87-1.39a67.3,67.3,0,0,0-7.76-1c-3.76-.23-7.43-.42-11.37,1.14a9.88,9.88,0,0,0-3.42,2c-2.13,2-2.24,4.3-3.11,4.26-.21,0-.59-.16-2.06-4.34-2.83-8-5.27-16.24-7.38-24.5-1.89-7.37-5.08-16.46-2.09-23.95a14.32,14.32,0,0,1,.95-1.95,18.72,18.72,0,0,1,6.9-6.47c6.7-4,10-6,11.68-6.78,11.68-5.8,17.52-8.7,21.22-9.53a78,78,0,0,0,11.5-3.6,13,13,0,0,0,6.13-4.23c.69-.93,2.06-2.78,1.71-4.87-.52-3.06-4.36-4.58-5.71-5.12-3.58-1.42-6.9-1-12.2-.35a70.38,70.38,0,0,0-7,1.29c-12.14,2.94-18.21,4.42-25.63,7.88-5.9,2.75-8.84,4.12-11.35,7.07-3.12,3.68-4.58,8.2-6,7.88-.25-.05-.57-.27-1.22-2.68a37.63,37.63,0,0,1-1.34-10.07c0-1.71.1-3,.14-3.5a49.59,49.59,0,0,1,2.27-11.29c1.76-5.48,2.87-8.93,5.72-12.32s6.11-5,11.19-7.38a70.75,70.75,0,0,1,20.4-5.88,89.42,89.42,0,0,1,19.8-.31c8,.54,14.74,1,23,2.81a51.17,51.17,0,0,0,14.56.56,13.94,13.94,0,0,0,4.75-1.4,7.22,7.22,0,0,0,3.71-3.14,5.92,5.92,0,0,0,.26-4.16c-1.09-3.92-5.81-5.67-7.73-6.38-2.6-1-4.7-1.16-12.69-1.27-5.1-.06-7.65-.1-10.43,0-9.75.21-14.62.32-21.22,1.13a160.68,160.68,0,0,0-16,2.92c-5.59,1.21-9.24,2.24-16.53,4.29-5.21,1.46-6.41,1.92-7.81,2.66-2.53,1.33-4.19,2.74-4.8,2.24-.45-.36,0-1.53.86-3.85.67-1.79,2.45-6,2.7-7.19,0,0,0-.09,0-.19a4.2,4.2,0,0,1,.76-1.51c.85-1.11,8.58-18.38,14.56-26.75a23.29,23.29,0,0,1,5.68-5.71c.17-.12.76-.53,1.6-1a35.44,35.44,0,0,1,10.14-3.72,58.21,58.21,0,0,1,12.18-1.71,78.82,78.82,0,0,1,9.36.49A142.43,142.43,0,0,1,132,74.19c4.5.82,7.84,1.69,12.46,2.9,3.64,1,5.74,1.5,8.72,2.48,5.24,1.71,10.65,3.84,10.65,3.84,1.31.51,2.64,1,3.95,1.46,2.86,1.13,4.54,1.94,6.6,1.67a3.54,3.54,0,0,0,2.06-.87,2.94,2.94,0,0,0,.89-1.6c.25-1.63-1.37-3-2-3.5a9.31,9.31,0,0,0-4.37-2c-26.49-4.31-52.62-15.78-79.4-13.4-1.53.14-5.7.55-6.62-1.24-1-2,3-6.13,11-14.32,2.49-2.54,5.54-5.5,9.38-8.77a65.56,65.56,0,0,1,5.53-4.46c2.22-1.52,8.06-5.16,14.52-6.08,2.63-.38,6-.4,17.05,3.43,17.13,6,33.11,11.54,38.33,19.51.55.84,2.37,3.82,5.22,4.11,1.77.18,3.89-.68,4.34-2,.71-2.14-2.89-5-5.1-6.77C167.52,34.65,148.09,22.9,142,21.08c-1.62-.49-3.11-1.3-4.69-1.9-.85-.32-3.15-1.19-3.08-1.92a.81.81,0,0,1,.14-.38,1.55,1.55,0,0,1,.91-.58c2.53-.64,6-5.64,27.08-7.18,10.46-.77,15.68-1.15,18.71,0,6.79,2.57,11.19,8.09,19.08,18,5.42,6.79,9.22,12.93,12.29,12a3.46,3.46,0,0,0,1.92-1.93c2.22-4.2-1.9-10.23-5.28-15.17s-5-7.23-7.54-8.61c0,0-6.22-3.33-9.24-6.05A1.77,1.77,0,0,1,191.59,6a1.32,1.32,0,0,1,.24-.62,2.34,2.34,0,0,1,.88-.71c.53-.24,22.91-7.3,38.25,2.47,20.3,12.93,13.2,52.17,12.15,58.07C237,99.9,205.31,121,145.82,164,121.71,181.38,90.74,201.51,75,240.64c-1.29,3.19-2.21,5.86-2.8,7.62"/><text class="cls-2" transform="translate(25.57 181.9)">N&amp;M</text></g></g></svg>