<svg xmlns="http://www.w3.org/2000/svg" viewBox="0 0 146.04 91.39"><defs><style>.cls-1{fill:#5e72b6;}</style></defs><g id="Calque_2" data-name="Calque 2"><g id="Layer_1" data-name="Layer 1"><path class="cls-1" d="M28.44,81.43l-1-19.86L18.92,81.43H14.57L6,61.63l-.88,19.8H0L1.58,51.29H6.43L16.77,74.62,27.05,51.29H32l1.57,30.14Z"/><path class="cls-1" d="M48.68,84.71c-2.21,5.17-4,6.68-8.39,6.68a13.62,13.62,0,0,1-4.67-.94V86a17.26,17.26,0,0,0,4.86,1c2.08,0,3-1.89,4.16-4.92l.38-1-8.7-21.69h5.17l6.24,15.07,6.5-15.07H59.4Z"/><path class="cls-1" d="M70.87,82.12a21.38,21.38,0,0,1-9.77-2.27V74.62a20.05,20.05,0,0,0,9.83,3c3.47,0,5.68-1.26,5.68-3.46,0-3-3.85-5.11-7.06-7-4.48-2.65-8.33-4.86-8.33-9.27,0-4.16,3.91-7.19,10.09-7.19A25.23,25.23,0,0,1,80.2,52.3v5a23.63,23.63,0,0,0-8.57-2c-3.22,0-5.17.63-5.17,2.52,0,2.4,3.91,4.17,7.37,6.18,5,2.9,8,5.55,8,10.16S78.18,82.12,70.87,82.12Z"/><path class="cls-1" d="M116.52,82.25C109.9,80,106.24,82,100.82,82c-10,0-15.26-6.25-15.26-15.64s5.3-15.7,15.26-15.7,15.32,6.18,15.32,15.7c0,4.16-1.13,8.83-4.54,10.72a12.84,12.84,0,0,1,4.92.12Zm-15.7-27.18c-7,0-10,4.54-10,11.23s3,11.22,10,11.22S111,72.92,111,66.3,107.94,55.07,100.82,55.07Z"/><path class="cls-1" d="M122,81.43V51.29h5.17V77H141v4.48Z"/><path class="cls-1" d="M117.56,53.84a23.51,23.51,0,0,1-8.31-10.65c-.68-1.58-1-3.32-1.61-4.8a1.88,1.88,0,0,0,2.55.58l.11-.07a2.11,2.11,0,0,0,.54-.6c-.31,1.87-.58,4.11-1,6.06-.41,1.51-.46,2.83-1.75,4.1a2.34,2.34,0,0,1-1.44.55,3.11,3.11,0,0,1-2.35-1.2A20.68,20.68,0,0,1,103,25.75l.24,1.69c-2.85-3-3.93-7.15-4.8-11a14.13,14.13,0,0,0-2.26-5.63c-.34-.56-1.53-2.33-1.86-3C91,1.19,97.42-2.2,102.85,1.57a11.74,11.74,0,0,1,3.8,3.91l-1.8-.94c9.73-.07,16.14,8.78,20.62,16.3a76.27,76.27,0,0,1,6.86,18.24c.54,1.74,1.39,1.37,3.26,2.35l-.27-.11a6.9,6.9,0,0,1,.87.41,40.08,40.08,0,0,1,3.43,2.13c2.38,1.8,5.06,3.61,6.22,6.57a3.75,3.75,0,0,1-2,4.62,12.07,12.07,0,0,1-4.42.74,7.74,7.74,0,0,0-1.48.17c-.1,0,0,0,0,0a1.23,1.23,0,0,0,.6-1c-.07-.2,0,.24.25.65a9.53,9.53,0,0,0,1,1.43,53,53,0,0,1,5.14,6.8l-.38.5a17,17,0,0,1-4.3-1.5,15.84,15.84,0,0,1-5.57-4.49,6.13,6.13,0,0,1-1.28-3.3c-.09-3.43,3.13-4.5,5.82-4.48a16.76,16.76,0,0,0,2.49-.14c.05,0,0,0,0,0s0,0-.08.06a1.47,1.47,0,0,0-.59,1.47c-1.5-2.39-4.3-4.17-6.7-5.7-.22-.13-.54-.32-.77-.43l.28.11a21.86,21.86,0,0,1-3.48-1.71,6.78,6.78,0,0,1-2.57-4,35.42,35.42,0,0,0-1.51-5.92c-2.54-7.63-5.83-15.34-11.58-21.15-2.85-3-6.55-5.18-10.71-4.53a8.22,8.22,0,0,0-3.3-3.31,5.11,5.11,0,0,0-2.74-.77c-.15,0-.12,0-.09,0s.13-.15.11-.15a4,4,0,0,0,.73,2.41,25.64,25.64,0,0,1,3,6.64c.91,4.45,1,9.42,4.54,12.66a22.48,22.48,0,0,0-1.71,12.73,15.18,15.18,0,0,0,2.42,6.69c.1.12.21.19.14.15a1.22,1.22,0,0,0-1.18.15c-.2.19-.09.09-.07,0a2.67,2.67,0,0,0,.15-.55c.5-2.78,0-5.46.89-8.29A3.09,3.09,0,0,1,108,35.35a2.41,2.41,0,0,1,3.48,1.36c.61,1.82.71,3.66,1.15,5.43A30.85,30.85,0,0,0,118,53.4l-.44.44Z"/><path class="cls-1" d="M105.13,12.19c-.15.22.51.61,1.12,1.83.72,1.42.57,2.37.85,2.4s1.42-1.79.71-3.1S105.34,11.86,105.13,12.19Z"/></g></g></svg>