<svg xmlns="http://www.w3.org/2000/svg" viewBox="0 0 141.88 40.93"><defs><style>.cls-1{fill:#5e72b6;}.cls-2{fill:#fdeff0;}.cls-3{fill:none;stroke:#5e72b6;stroke-miterlimit:10;stroke-width:2px;}</style></defs><g id="Calque_2" data-name="Calque 2"><g id="Layer_1" data-name="Layer 1"><path class="cls-1" d="M0,37.52V21.17l11.22-6.5,11,6.34L22,38.15l-6.83-4.44-.32-8.09q-1.81-1.2-3.65-2.38L7.57,25.62l-.16,7.93Z"/><path class="cls-1" d="M40.9,14.67,30.11,21V33.87l10.63,6.19L52,33.87V20.7Z"/><path class="cls-1" d="M81.85,4.35,75,0l-.16,17.36L70.9,15,60,20.86l-.16,13.33L70.9,40.93,82,33.71ZM74.39,29.58,70.74,32l-3.49-2.22.15-4.28,3.5-2.07,3.65,2.07Z"/><path class="cls-2" d="M100.57,25.06l-2.06,1.27-.08,2.38L100.49,30l2.23-1.27-.08-2.46Z"/><path class="cls-1" d="M104.38,29.35l7.3-4.21-.08-4.05-10.87-6.27L89.62,21.17l-.31,12.54,11.1,6.51,7.15-4L96.69,29.74,97,25.38l3.57-2,3.65,2C104.28,26.7,104.33,28,104.38,29.35Z"/><path class="cls-3" d="M130.3,15.46l-10.29,6V33.52l10.14,5.82,10.73-5.82V21.13Z"/><path class="cls-1" d="M123.43,34.8c.2-.29.83.12,1.36-.15s.66-.93.7-1.65V23h2V32.7A4.14,4.14,0,0,1,126,36.23c-.52.37-1.49.91-1.94.58-.08-.06-.11-.12-.39-.9S123.36,34.9,123.43,34.8Z"/><path class="cls-1" d="M128.62,29.3h2c.08,1.42,1.05,2.22,2.64,2.22,1.34,0,2.25-.58,2.25-1.53,0-1.13-1.3-1.37-2.94-1.77s-3.64-1-3.64-3,1.85-2.81,4-2.81c2.54,0,4.08,1.07,4.19,3.23h-2c-.09-1.25-1-1.75-2.26-1.75-1,0-2,.34-2,1.27s1.12,1.25,2.59,1.61c2.51.6,4,1.32,4,3.19,0,2.17-2.05,3.09-4.23,3.09C130.36,33,128.68,31.6,128.62,29.3Z"/></g></g></svg>