<svg xmlns="http://www.w3.org/2000/svg" viewBox="0 0 77.49 75.68"><defs><style>.cls-1{fill:#5e72b6;}</style></defs><g id="Calque_2" data-name="Calque 2"><g id="Layer_1" data-name="Layer 1"><path class="cls-1" d="M28.41,27.76a13.63,13.63,0,0,0-2.74.22v8.76a10.05,10.05,0,0,0,2.23.18c3.56,0,5.76-1.8,5.76-4.81C33.66,29.38,31.79,27.76,28.41,27.76Z"/><path class="cls-1" d="M65.49,0H12A12,12,0,0,0,0,12V63.68a12,12,0,0,0,12,12H65.49a12,12,0,0,0,12-12V12A12,12,0,0,0,65.49,0ZM37.59,38.94c-2.29,2.15-5.71,3.15-9.63,3.15a16.13,16.13,0,0,1-2.29-.15V52.56H19V23.29a54.77,54.77,0,0,1,9-.62c4.11,0,7.09.8,9.08,2.39a8.6,8.6,0,0,1,3.14,6.86A9.32,9.32,0,0,1,37.59,38.94ZM49.16,53a15.43,15.43,0,0,1-7-1.52l1.22-4.78a13,13,0,0,0,5.74,1.6c2,0,2.88-.68,2.88-1.78s-.68-1.65-3.16-2.49c-4.47-1.47-6.16-3.91-6.13-6.43,0-4,3.41-7.09,8.75-7.09a14.18,14.18,0,0,1,6.07,1.26L56.38,36.4a10.92,10.92,0,0,0-4.66-1.22c-1.64,0-2.57.66-2.57,1.74s.85,1.58,3.49,2.49c4.09,1.38,5.8,3.49,5.83,6.63C58.47,50.06,55.33,53,49.16,53Z"/></g></g></svg>