<svg xmlns="http://www.w3.org/2000/svg" viewBox="0 0 136.18 71.65"><defs><style>.cls-1{fill:#5e72b6;}</style></defs><g id="Calque_2" data-name="Calque 2"><g id="Layer_1" data-name="Layer 1"><path class="cls-1" d="M44.69,26.07a22.72,22.72,0,0,0-5.48.65l-3,17a17.68,17.68,0,0,0,5.09.72c5.48,0,9.26-3.39,10.37-9.72C52.71,29,50.62,26.07,44.69,26.07Z"/><path class="cls-1" d="M95,26.07a22.65,22.65,0,0,0-5.48.65l-3,17a17.63,17.63,0,0,0,5.09.72c5.48,0,9.26-3.39,10.37-9.72C103,29,100.91,26.07,95,26.07Z"/><path class="cls-1" d="M68.09,0C30.49,0,0,16,0,35.82S30.49,71.65,68.09,71.65s68.09-16,68.09-35.83S105.7,0,68.09,0ZM54.8,34.62c-1.37,8-6.78,12.45-14,12.45a21,21,0,0,1-5.09-.65L34,56.4H30.8L36.34,25A22.43,22.43,0,0,1,45,23.33C52.84,23.33,56.17,27,54.8,34.62ZM79.19,31,76.52,46.42h-3.2L76,31.23c.52-3.14-.52-5.16-4-5.16a8.76,8.76,0,0,0-8.22,7L61.45,46.42H58.26l5.48-31.17h3.19L64.84,26.86a11.35,11.35,0,0,1,7.83-3.53C78,23.33,80,26.33,79.19,31Zm25.9,3.66c-1.37,8-6.79,12.45-14,12.45A21,21,0,0,1,86,46.42l-1.76,10h-3.2L86.63,25a22.41,22.41,0,0,1,8.67-1.63C103.13,23.33,106.46,27,105.09,34.62Z"/></g></g></svg>