<svg xmlns="http://www.w3.org/2000/svg" viewBox="0 0 448.47 316.5"><defs><style>.cls-1{fill:#fceaec;}</style></defs><g id="Calque_2" data-name="Calque 2"><g id="Layer_1" data-name="Layer 1"><path class="cls-1" d="M271.48,301c75.42-32.17,168-119.94,176.36-176.6,6.39-43.37-36.68-67.64-76.12-69.59-39.59-2-62,19.24-115.34,15-21.18-1.66-41.5-3.26-59.63-16.32-18.33-13.22-19.22-27.2-46.69-43.72C133-.48,122.48-1.61,110.84,1.58,95.92,5.66,90.17,13.83,77.22,15.3,58.36,17.44,58.15,1.53,44.67,5.57,29.51,10.12,13.4,35.14,10.22,40.07-35.74,111.44,77.13,383.86,271.48,301Z"/></g></g></svg>