<svg xmlns="http://www.w3.org/2000/svg" viewBox="0 0 423.77 323.36"><defs><style>.cls-1{fill:#fceaec;}</style></defs><g id="Calque_2" data-name="Calque 2"><g id="Layer_1" data-name="Layer 1"><path class="cls-1" d="M389.23,275.28C450.52,191,424.56,36.16,355.87,6.87c-29.58-12.61-78.47-8.7-101.43,18.7C229,56,232.36,86.62,196.83,126.62c-14.1,15.88-27.64,31.11-49,37.69-21.6,6.64-33.28-1.09-63,10.85-18.48,7.41-25.72,15.11-30.21,26.31-5.74,14.37-2.7,23.88-9.35,35.1a23.44,23.44,0,0,1-6.93,7.69c-7.07,4.79-12.69,5.65-17.15,7.22C6.58,256.62-4,279.7,1.48,292c3.92,8.76,15.79,11.61,23.07,12.92C328,359.58,389.23,275.28,389.23,275.28Z"/></g></g></svg>