<svg xmlns="http://www.w3.org/2000/svg" viewBox="0 0 123.04 92.35"><defs><style>.cls-1{fill:#5e72b6;}</style></defs><g id="Calque_2" data-name="Calque 2"><g id="Layer_1" data-name="Layer 1"><path class="cls-1" d="M122.7,63.38a15.91,15.91,0,0,0-4.48-6.44c-3.86-3.28-8.22-3.61-10.86-3.81a24.53,24.53,0,0,0-12.5,2.46,17.33,17.33,0,0,1-1.77-3.53,15.31,15.31,0,0,1-1-6.56,15,15,0,0,1,1.24-4.9,1.21,1.21,0,0,0,.26-.94c-.11-.49-.59-.73-.91-.88a2.7,2.7,0,0,0-.91-.27,13,13,0,0,0-3.9.22c-1.53.37-1.85.72-2,.92a2.58,2.58,0,0,0-.39,1.08c-.34,1.54-.52,2.31-.54,2.53-.13,1-1.73,4.47-7.43,14.36a12.4,12.4,0,0,1-1.77-4.08,16.25,16.25,0,0,1,0-6.11A6.26,6.26,0,0,1,76.06,46a6.18,6.18,0,0,1,.59-1.23,2.16,2.16,0,0,0,.2-1.52C76.51,42.1,73.6,42.1,73,42.1c-1.17,0-3,0-3.72,1.11-.2.3-.17.46-.43,1.5s-.55,1.89-.73,2.42c-1.14,2.78-2.87,6.93-5.11,11.95-4.55,10.2-6,13-6.53,12.87s-.33-2.41,2.25-12.69c.23-1,.48-1.84.66-2.39.23-.71.33-.93.27-1.29A2.34,2.34,0,0,0,57.92,54a2.89,2.89,0,0,0-2.38.58c.84-3.29-.09-6.38-2-7.45-2.56-1.4-6.19,1-6.83,1.41a28.41,28.41,0,0,0-3.27,2.72c-.36.35-.76.74-1.28,1.3-.83.92-.89,1.13-1.37,1.57a7.88,7.88,0,0,1-2.14,1.25c-1,.5-.88.51-2.75,1.58-2.62,1.48-6.08,3.29-7.2,3.87-1-.89-2.39-2.2-4.18-3.72-4.27-3.63-5.13-3.87-7.5-6C13.23,47.79,10.14,45,9.39,40.7a13.86,13.86,0,0,1,1-7.32c1.38-3.82,3.77-6.42,6.63-9A71.45,71.45,0,0,1,37.1,12C43,9.57,47.8,7.68,54.49,7.56c3.46-.06,12.9-.31,15.66,5a6.76,6.76,0,0,1,.63,1.89C72.2,21.48,64.22,29.11,59,32.6a36.13,36.13,0,0,1-12.51,5,28.53,28.53,0,0,1-7,.76,20.42,20.42,0,0,1-6.09-1.11,8.18,8.18,0,0,1-1.9-1,7.55,7.55,0,0,1-1.56-1.55c-.5-.48-1-.71-1.31-.55s-.23,1.09-.17,1.43c.37,2.1,2.52,3.47,4.29,4.6.35.22.74.47,1.23.73,0,0,.44.24.89.45,5.16,2.39,15.23.57,15.24.57,1.1-.2,2.65-.52,4.5-1a31.89,31.89,0,0,0,6.92-2.63A32.39,32.39,0,0,0,69,32.77a28.5,28.5,0,0,0,5.13-6.35c1.21-2.12,5.74-10.07,2.28-17.07C73.77,4,67.75,2,65.47,1.21A27.58,27.58,0,0,0,58.82,0c-.62,0-1.11,0-2.09,0,0,0-3.32.06-6.2.33-12.09,1.16-27.34,10-27.34,10-9.36,5.41-14,10.21-15.81,12.13A27.42,27.42,0,0,0,.89,33.08,12.35,12.35,0,0,0,.11,39c.2,1.25.59,3.85,3.6,7.84,2.08,2.76,4.16,4.57,10.91,9.59,2.26,1.68,5.2,3.83,8.68,6.3l.78.59a67,67,0,0,0-9.14,5.39c-5.31,3.72-8.22,5.77-9.77,9.62-1.34,3.32-2,8.92,1.1,12,2.05,2,4.89,2,6.8,2.07,8.49.15,14.26-6.69,14.88-7.44a22.81,22.81,0,0,0,4.66-12.38,22.36,22.36,0,0,0-.31-4.1A20.27,20.27,0,0,0,31,64.09l6.83-3.93a26.76,26.76,0,0,0-1.57,9,19.14,19.14,0,0,0,.67,5.27c.54,1.8,1.72,5.72,4.72,6.52a4.64,4.64,0,0,0,2.64-.11c1.28-.44,2.23-1.42,3.89-4.56a50.89,50.89,0,0,0,2.94-6.71c-.86,4.7-.17,8.58,1.8,9.53a3.36,3.36,0,0,0,1.89.28c1.56-.21,2.67-1.51,3.58-2.95C60.15,73.6,64.55,64.69,70,52.63A26.84,26.84,0,0,0,73.7,63.16c-3.41,4.47-5.16,6.54-6.13,7.58-.24.26-.68.84-1.58,2s-1.36,1.82-1.39,2.63a2.79,2.79,0,0,0,.28,1.31c1,1.63,5.7,1.2,9.14-.44,1.59-.76,4.75-2.26,6.09-5.93a10.59,10.59,0,0,0-1-8.75c1.48-2.16,3-4.52,4.46-7.07,1.08-1.86,2.06-3.68,3-5.44a42.18,42.18,0,0,0,2,6.83c.4,1,.83,2,1.26,2.92a23.19,23.19,0,0,0-4.47,4.81A12.83,12.83,0,0,0,83,68.55c-.26,1.38-.62,3.34.56,4.42s3,.61,3.33.52A16.72,16.72,0,0,0,93.2,70.4a9.65,9.65,0,0,0,2.9-3.15,9.35,9.35,0,0,0,.82-6.07,9.5,9.5,0,0,0-.8-2.44,23.9,23.9,0,0,1,11.26-1.41c2.62.31,8.06,1,11.21,5.13.66.88,2.28,3,1.85,5.55a7.5,7.5,0,0,1-2.56,4.33c-.78.62-1.87,1.19-1.75,1.54s.5.23.65.24c1.44.09,3.54-1.24,4.79-3C123.76,68.09,122.92,64.29,122.7,63.38ZM27.06,73.25a15.18,15.18,0,0,1-4.79,9.14c-2.36,2.15-6.95,4.93-9.85,3.43a2.87,2.87,0,0,1-1.11-.9C9.83,82.81,12,79,12.93,77.33c3.32-5.83,9.69-9.07,13.48-10.62A14.68,14.68,0,0,1,27.06,73.25Zm20.09-5.12c-1.59,4-2.8,6.51-3.76,6.35-.37-.06-.68-.52-1-1.73C40.77,66.89,43.42,61,43.91,60a25.48,25.48,0,0,1,3.5-5.51c2.55-2.24,3.6-2.37,4.08-2.08C53.06,53.35,50.44,59.91,47.15,68.13Zm27.22,2.4c-1.37,3.31-5.19,4.85-5.7,4.28-.78-.87,5-8,6.09-7.39C75.26,67.69,74.77,69.55,74.37,70.53ZM90.7,67.42c-1.25,2.12-3.75,3.56-4.34,3-1.09-.93,3.43-9,4.79-8.61C91.91,62.09,92.05,65.13,90.7,67.42Z"/></g></g></svg>