<svg xmlns="http://www.w3.org/2000/svg" viewBox="0 0 131.13 51.33"><defs><style>.cls-1{fill:#5e72b6;}.cls-2{fill:#fdeff0;}</style></defs><g id="Calque_2" data-name="Calque 2"><g id="Layer_1" data-name="Layer 1"><path class="cls-1" d="M0,.25q6.8,25.49,13.6,51c2.08.13,6.12.08,9-2.59a10.24,10.24,0,0,0,2.71-4.8c2.35-7.6,5.79-22.59,7.09-27.64.27-1.05.86-3.22,1.69-3.24s1.39,1.77,1.69,2.7c1.81,5.53,4.9,19,6.15,24.53.05.42,1,7.52,6.83,10.07a10.85,10.85,0,0,0,6,.71Q61.57,25.61,68.34.25a9.72,9.72,0,0,0-7.1,1.07A9.64,9.64,0,0,0,57.32,6l-7.5,28.45c-2.33-8.85-4.34-16.28-5.88-22.51-.53-2.14-1.64-6.67-5.07-8.44a10.41,10.41,0,0,0-4.12-1.08,10.91,10.91,0,0,0-4.35.65C26,4.87,24.78,10.48,24.68,11L18.46,34.64c-2.87-10.55-5.18-19-6.76-25.54-.44-1.83-1.23-5.17-4.12-7.23A10.93,10.93,0,0,0,0,.25Z"/><path class="cls-2" d="M71.51,11.12a14.37,14.37,0,0,1,1.61-8.7,8.31,8.31,0,0,1,4-2.17,8.39,8.39,0,0,1,3.58,0c.16,1,.46,4-1.28,6a10.53,10.53,0,0,1-2.84,2.16c-.94.51-1.46.62-2.7,1.26A21.62,21.62,0,0,0,71.51,11.12Z"/><path class="cls-1" d="M80.57,8.56a9.6,9.6,0,0,1-1.22,1.28,12.34,12.34,0,0,1-2.7,1.69C74,12.9,73.65,13,73,13.61a6.23,6.23,0,0,0-1.34,2l-.27,35.28c.54.07,5.05.6,7.3-2a8.2,8.2,0,0,0,1.89-5.81Z"/><path class="cls-1" d="M84.94.62l16.92,25.17-17,25.14c6,.83,9.13-.61,10.89-2,3.8-3.07,9.06-12.49,10.74-14.66a1.9,1.9,0,0,1,1.35-.88A1.54,1.54,0,0,1,109,34c3,4,5.26,7.2,6.79,9.41,2.15,3.11,2.78,4.15,4.16,5.25,3.51,2.79,8,2.87,10.95,2.59L114.09,25.65l17-25.14a13.63,13.63,0,0,0-12.85,4.26c-4.49,5.94-7.52,10.11-8.65,12-.23.39-.89,1.56-1.72,1.52-.57,0-1-.61-1.25-1.05L98.14,5.38a13.14,13.14,0,0,0-7.3-4.8A12.71,12.71,0,0,0,84.94.62Z"/></g></g></svg>