<svg xmlns="http://www.w3.org/2000/svg" viewBox="0 0 87.85 87.85"><defs><style>.cls-1{fill:#5e72b6;}.cls-2{fill:none;stroke:#5e72b6;stroke-miterlimit:10;stroke-width:4px;}</style></defs><g id="Calque_2" data-name="Calque 2"><g id="Layer_1" data-name="Layer 1"><path class="cls-1" d="M25.93,24c0,1.23-.05,2.47-.07,3.7l-4.74-.15,13,37,7.38-21.11q-2.76-8-5.53-15.88l-5.33-.1.1-3.45H53.29c0,1.22-.07,2.44-.1,3.65L48,27.57Q54.54,46,61.13,64.34c.8-2.25,1.81-5.13,2.94-8.48,2.78-8.21,3.2-10.11,3.32-12.52a18,18,0,0,0-1.14-8.77,38.56,38.56,0,0,0-2.94-5.31c-1.48-2.25-2.09-2.67-2.38-4a6.32,6.32,0,0,1,7.2-7.59,5.09,5.09,0,0,1,1.23.34,36.32,36.32,0,0,0-55.83,6Z"/><path class="cls-1" d="M74.5,24.29A12.16,12.16,0,0,1,75,26.42,30,30,0,0,1,75.13,31a25.51,25.51,0,0,1-.42,4.73A28,28,0,0,1,73,40.61c-1,2.47-1.19,3.46-2,6C70,49.49,67.35,57,60.4,76.24L55.11,78.5A36.36,36.36,0,0,0,74.5,24.29Z"/><path class="cls-1" d="M10.07,30.71A36.36,36.36,0,0,0,26,75.52Q18,53.13,10.07,30.71Z"/><path class="cls-1" d="M43.37,49.19q-4,10.85-8.22,21.65-1.44,3.75-2.9,7.5a36.6,36.6,0,0,0,21.73.5Q48.69,64,43.37,49.19Z"/><circle class="cls-2" cx="43.92" cy="43.92" r="41.92"/></g></g></svg>