<svg xmlns="http://www.w3.org/2000/svg" viewBox="0 0 77.49 75.68"><defs><style>.cls-1{fill:#5e72b6;}</style></defs><g id="Calque_2" data-name="Calque 2"><g id="Layer_1" data-name="Layer 1"><path class="cls-1" d="M50,27.9a14.64,14.64,0,0,0-3,.26V47.58a14.92,14.92,0,0,0,2.34.12c6.07,0,10.07-3.3,10.07-10.39C59.35,31.14,55.74,27.9,50,27.9Z"/><path class="cls-1" d="M65.49,0H12A12,12,0,0,0,0,12V63.68a12,12,0,0,0,12,12H65.49a12,12,0,0,0,12-12V12A12,12,0,0,0,65.49,0ZM28.85,52.63l-2.68-5.36c-1.07-2.08-1.81-3.63-2.62-5.34h-.09c-.62,1.72-1.35,3.27-2.31,5.32l-2.46,5.38H11.06l8.57-15L11.36,23h7.71l2.6,5.4c.87,1.81,1.51,3.27,2.21,4.93H24c.72-1.88,1.27-3.2,2-4.91L28.51,23h7.66L27.8,37.44l8.81,15.19ZM61.53,49.1c-3.12,2.6-7.9,3.84-13.68,3.84a56.06,56.06,0,0,1-7.62-.44V23.38a59.06,59.06,0,0,1,9-.64c5.63,0,9.31,1,12.15,3.18,3.08,2.3,5,5.92,5,11.17C66.43,42.77,64.38,46.7,61.53,49.1Z"/></g></g></svg>