<svg xmlns="http://www.w3.org/2000/svg" viewBox="0 0 448.47 316.5"><defs><style>.cls-1{fill:#fceaec;}.cls-2{fill:#5e72b6;}.cls-3{fill:none;stroke:#1d1d1b;stroke-miterlimit:10;}</style></defs><g id="Calque_2" data-name="Calque 2"><g id="Layer_1" data-name="Layer 1"><path class="cls-1" d="M271.48,301c75.42-32.17,168-119.94,176.36-176.6,6.39-43.37-36.68-67.64-76.12-69.59-39.59-2-62,19.24-115.34,15-21.18-1.66-41.5-3.26-59.63-16.32-18.33-13.22-19.22-27.2-46.69-43.72C133-.48,122.48-1.61,110.84,1.58,95.92,5.66,90.17,13.83,77.22,15.3,58.36,17.44,58.15,1.53,44.67,5.57,29.51,10.12,13.4,35.14,10.22,40.07-35.74,111.44,77.13,383.86,271.48,301Z"/><path class="cls-2" d="M207.89,281.28c9.52,3.66,22,8.27,38.18,6.24,7.31-.91,21.95-3,32.87-15.27,16.29-18.22,10.95-44.15,10.33-46.95-2-12.89-7-33-21.19-52-24-32.28-72.29-58.41-99.95-40-16.77,11.15-20.19,34.84-22.13,48.25-1.34,9.29-4.51,40.73,15.35,68C175.55,269,194.05,276,207.89,281.28Z"/><path class="cls-3" d="M145.83,150.44c19.27,1.95,26.71,7.32,29.81,12.15.75,1.16,3.13,5.22,3.91,4.89.63-.27-.34-3.18-.84-7.51-.18-1.59-.83-7.26.12-11,1.65-6.51,8.79-10,12.48-11.74,11.26-5.42,24-3.63,32.62,1.21,4.56,2.57,8.77,6.44,8.21,7.51-.43.83-3.31-.78-8-.55-.75,0-8.33.52-12.69,6-1.68,2.12-3.4,5.65-2.25,7,.36.43,1.11.73,2.87.45,4.94-.77,7.72-4.46,10.92-7.09a26.52,26.52,0,0,1,12.87-5.6c10.19-1.25,17.68,6.35,25,13.76.6.61,1.52,1.6,1.24,2.36-.59,1.62-6,.41-12.84.45a59.2,59.2,0,0,0-17,2.64c-5.83,1.7-14.37,5.14-14,7.55a1.68,1.68,0,0,0,1,1.16c1.41.57,3.12-1.27,5.27-2.74,1.18-.8,3.12-1.51,7-2.93,12.35-4.54,22.67-8.33,31.1-4.12,2.14,1.07,3.66,2.4,6.29,4.71a39,39,0,0,1,8.41,10c.45.82,4.14,7.5,2.49,8.92-.67.58-2,.07-2.44-.1-4.87-1.82-10.36-.78-15.54-1.22-4.06-.35-9.17.15-19.38,1.16,0,0-15.73,1.55-16.21,4.37a2.58,2.58,0,0,0,.08,1.12,3.41,3.41,0,0,0,2,1.83c3.5,1.54,8.56-.61,8.56-.61,8.68-3.69,38.89-6.34,45.75,4.09,1.44,2.19,2.19,6,3.69,13.69.32,1.62.52,3.31.93,6.7.49,4,.4,4.34.18,4.56-1.65,1.59-7.37-4.75-17.82-8-2.14-.66-7.05-.94-16.88-1.49-1.26-.08-5.06-.24-8.09,2-1.23.91-1.45,1.56-1.48,2-.2,2.25,4.18,4.17,4.67,4.38a12.8,12.8,0,0,0,4.23,1c1,.06,5.45.86,14.42,2.47a77.68,77.68,0,0,1,16.38,5,11.8,11.8,0,0,1,5.26,3.84c1.53,2.13,1.77,4.3,2,6.86a38.56,38.56,0,0,1-1.48,13.31c-.15.63-.53,2.1-.93,4.17a40.44,40.44,0,0,0-.71,4.7,14.86,14.86,0,0,0,.59,6.92,5.69,5.69,0,0,0,1.18,2.1c1.21,1.31,2.62,1.4,2.59,1.92,0,.13-.1.36-2.7,1.22q-7.51,2.48-15.22,4.29c-4.57,1.09-10.23,3-14.82,1.08a9.76,9.76,0,0,1-1.19-.6,11.35,11.35,0,0,1-3.93-4.24c-2.39-4.1-3.58-6.15-4.07-7.16-3.45-7.14-5.18-10.71-5.66-13a46.24,46.24,0,0,0-2.09-7,8,8,0,0,0-2.55-3.76,4.18,4.18,0,0,0-3-1.07c-1.9.29-2.88,2.61-3.23,3.42-.92,2.17-.71,4.19-.35,7.41a43,43,0,0,0,.72,4.3c1.69,7.4,2.54,11.1,4.6,15.64,1.63,3.61,2.45,5.41,4.24,7,2.25,1.93,5,2.85,4.81,3.72,0,.15-.17.34-1.67.72a23.34,23.34,0,0,1-6.24.73c-1.05,0-1.86-.08-2.16-.11a31.32,31.32,0,0,1-7-1.47c-3.37-1.12-5.49-1.82-7.55-3.58s-3-3.75-4.44-6.86a42.24,42.24,0,0,1-3.42-12.44,54.58,54.58,0,0,1,0-12,88.78,88.78,0,0,1,2-14,30.34,30.34,0,0,0,.5-8.84,8.23,8.23,0,0,0-.81-2.9,4.48,4.48,0,0,0-1.9-2.29,3.83,3.83,0,0,0-2.57-.19c-2.43.64-3.57,3.49-4,4.65-.63,1.58-.77,2.85-.92,7.7-.1,3.1-.15,4.65-.14,6.34a114.77,114.77,0,0,0,.47,12.91,95.57,95.57,0,0,0,1.63,9.74c.69,3.41,1.28,5.63,2.47,10.08a22.33,22.33,0,0,0,1.56,4.77c.79,1.55,1.65,2.57,1.34,2.93s-.95,0-2.37-.55c-1.1-.42-3.7-1.54-4.42-1.7l-.12,0a2.56,2.56,0,0,1-.92-.47c-.68-.53-11.27-5.37-16.38-9.07a14.25,14.25,0,0,1-3.46-3.49c-.07-.11-.32-.47-.61-1a21.08,21.08,0,0,1-2.2-6.19,34.59,34.59,0,0,1-.92-7.41,48,48,0,0,1,.4-5.69,87.52,87.52,0,0,1,1.32-9.24c.56-2.73,1.13-4.75,1.93-7.55.63-2.21,1-3.47,1.62-5.28,1.12-3.17,2.49-6.44,2.49-6.44.33-.79.62-1.6.95-2.39.73-1.73,1.24-2.75,1.1-4a2.12,2.12,0,0,0-.52-1.26,1.75,1.75,0,0,0-1-.55c-1-.17-1.87.81-2.19,1.17a5.76,5.76,0,0,0-1.27,2.64c-3,16.07-10.32,31.86-9.13,48.15.06.93.28,3.47-.84,4-1.27.62-3.76-1.86-8.73-6.81-1.54-1.54-3.34-3.41-5.32-5.77a40.78,40.78,0,0,1-2.7-3.4,22.2,22.2,0,0,1-3.6-8.87c-.2-1.6-.18-3.67,2.31-10.34,3.87-10.36,7.48-20,12.47-23.14.52-.32,2.38-1.4,2.59-3.14a2.57,2.57,0,0,0-1.21-2.65c-1.32-.45-3.14,1.72-4.24,3.05-8.79,10.64-16.26,22.36-17.45,26-.32,1-.84,1.87-1.22,2.83-.21.51-.77,1.91-1.23,1.86a.88.88,0,0,1-.23-.09.94.94,0,0,1-.34-.56c-.37-1.55-3.42-3.68-4.15-16.52-.36-6.36-.54-9.54.2-11.37,1.66-4.1,5.11-6.74,11.3-11.45,4.25-3.24,8.09-5.5,7.56-7.37a2.16,2.16,0,0,0-1.17-1.19c-2.58-1.38-6.35,1.08-9.44,3.09s-4.51,2.95-5.4,4.51a36.84,36.84,0,0,1-3.83,5.57,1.1,1.1,0,0,1-.82.42.72.72,0,0,1-.38-.15,1.35,1.35,0,0,1-.43-.54c-.14-.32-4.26-14,1.94-23.22,8.21-12.24,32.38-7.61,36-6.93,21.36,4,34.06,23.43,60,59.93,10.5,14.79,22.6,33.78,46.61,43.68,2,.81,3.6,1.39,4.68,1.76"/></g></g></svg>