<svg xmlns="http://www.w3.org/2000/svg" viewBox="0 0 151.69 154.51"><defs><style>.cls-1{fill:none;stroke:#1d1d1b;stroke-miterlimit:10;}</style></defs><g id="Calque_2" data-name="Calque 2"><g id="Layer_1" data-name="Layer 1"><path class="cls-1" d="M5.62,17.05C24.88,19,32.32,24.36,35.43,29.19c.74,1.16,3.13,5.23,3.91,4.89.62-.26-.35-3.17-.84-7.5-.19-1.6-.84-7.27.12-11,1.64-6.51,8.79-10,12.48-11.73C62.36-1.6,75.12.2,83.72,5c4.56,2.56,8.76,6.44,8.2,7.5-.43.83-3.31-.78-8-.55-.75,0-8.32.52-12.68,6-1.69,2.13-3.41,5.65-2.26,7,.37.43,1.11.73,2.88.46C76.82,24.72,79.6,21,82.8,18.4a26.42,26.42,0,0,1,12.87-5.6c10.19-1.26,17.69,6.35,25,13.75.6.61,1.52,1.6,1.25,2.36-.59,1.62-6,.42-12.85.45a59,59,0,0,0-17,2.65c-5.84,1.69-14.38,5.14-14,7.54a1.68,1.68,0,0,0,1,1.16c1.41.58,3.12-1.27,5.28-2.74,1.17-.8,3.11-1.51,7-2.93,12.36-4.54,22.68-8.33,31.11-4.12,2.14,1.07,3.66,2.41,6.29,4.72a38.66,38.66,0,0,1,8.4,10c.46.81,4.14,7.5,2.49,8.92-.66.57-2,.07-2.43-.11-4.87-1.81-10.37-.78-15.54-1.22-4.06-.35-9.17.16-19.39,1.16,0,0-15.73,1.55-16.21,4.38a2.71,2.71,0,0,0,.08,1.11,3.45,3.45,0,0,0,2,1.84c3.5,1.53,8.56-.62,8.56-.62,8.68-3.69,38.88-6.33,45.74,4.09,1.44,2.19,2.19,6,3.69,13.7.32,1.61.52,3.3.93,6.69.5,4,.4,4.35.18,4.56-1.65,1.59-7.37-4.75-17.81-8-2.15-.66-7.06-.93-16.89-1.49-1.26-.07-5.06-.24-8.08,2-1.24.91-1.45,1.56-1.49,2-.2,2.24,4.18,4.17,4.68,4.38a12.89,12.89,0,0,0,4.23,1c1,.06,5.45.87,14.41,2.48a76.76,76.76,0,0,1,16.39,5,11.79,11.79,0,0,1,5.25,3.85c1.54,2.13,1.78,4.29,2,6.85.52,5.31-.68,10.12-1.47,13.32-.16.63-.54,2.09-.94,4.16a42.52,42.52,0,0,0-.71,4.71,15,15,0,0,0,.59,6.92,5.88,5.88,0,0,0,1.18,2.09c1.22,1.31,2.63,1.4,2.6,1.92,0,.13-.11.36-2.71,1.22-5,1.66-10.09,3.07-15.22,4.29-4.57,1.09-10.22,3-14.82,1.08a8,8,0,0,1-1.19-.59,11.32,11.32,0,0,1-3.92-4.25c-2.39-4.1-3.59-6.15-4.07-7.15-3.46-7.15-5.19-10.72-5.66-13a46.55,46.55,0,0,0-2.1-7A7.84,7.84,0,0,0,99,112.19a4.12,4.12,0,0,0-3-1.08c-1.9.29-2.88,2.61-3.23,3.43-.91,2.16-.71,4.18-.34,7.41a37.58,37.58,0,0,0,.72,4.29c1.69,7.4,2.53,11.11,4.59,15.65,1.63,3.6,2.45,5.4,4.25,7,2.24,1.92,5,2.85,4.8,3.71,0,.15-.17.34-1.66.72a23.38,23.38,0,0,1-6.24.73c-1.06,0-1.86-.08-2.17-.11a30.79,30.79,0,0,1-6.94-1.47c-3.38-1.12-5.49-1.82-7.56-3.57s-3-3.76-4.44-6.87a42.31,42.31,0,0,1-3.41-12.44,53.38,53.38,0,0,1,0-12,88.74,88.74,0,0,1,2-14,30.53,30.53,0,0,0,.51-8.84,8.34,8.34,0,0,0-.82-2.9,4.38,4.38,0,0,0-1.9-2.28,3.79,3.79,0,0,0-2.57-.2c-2.43.64-3.56,3.5-4,4.65-.63,1.58-.77,2.85-.92,7.71-.1,3.1-.15,4.65-.14,6.34a117.12,117.12,0,0,0,.47,12.9,96.23,96.23,0,0,0,1.63,9.75c.69,3.4,1.28,5.63,2.47,10.08a22.37,22.37,0,0,0,1.56,4.76c.8,1.55,1.65,2.57,1.34,2.94s-1,0-2.37-.56c-1.1-.42-3.69-1.54-4.42-1.7l-.11,0a2.39,2.39,0,0,1-.93-.47c-.67-.53-11.27-5.36-16.37-9.07a14.08,14.08,0,0,1-3.47-3.49c-.07-.11-.32-.47-.61-1a21.29,21.29,0,0,1-2.19-6.2,34.44,34.44,0,0,1-.93-7.41,46.29,46.29,0,0,1,.41-5.69,87.29,87.29,0,0,1,1.31-9.24c.56-2.73,1.14-4.75,1.93-7.55.63-2.2,1-3.47,1.63-5.27,1.11-3.18,2.49-6.45,2.49-6.45.33-.79.61-1.6.94-2.39.73-1.73,1.25-2.75,1.1-4a2.09,2.09,0,0,0-.51-1.26,1.85,1.85,0,0,0-1-.55c-1-.17-1.87.81-2.19,1.17a5.74,5.74,0,0,0-1.27,2.65C44.46,96,37.08,111.79,38.27,128.09c.07.93.28,3.47-.84,4-1.27.62-3.75-1.85-8.73-6.81-1.54-1.53-3.34-3.41-5.32-5.77a38.4,38.4,0,0,1-2.69-3.39,22.31,22.31,0,0,1-3.61-8.88c-.2-1.6-.18-3.67,2.31-10.33,3.87-10.37,7.48-20,12.47-23.14.52-.33,2.39-1.41,2.59-3.14A2.57,2.57,0,0,0,33.24,68c-1.32-.45-3.14,1.72-4.24,3C20.21,81.67,12.74,93.39,11.55,97.08c-.31,1-.83,1.88-1.22,2.83-.21.51-.77,1.91-1.22,1.86a.68.68,0,0,1-.23-.09.92.92,0,0,1-.35-.56c-.37-1.54-3.42-3.68-4.15-16.51-.36-6.37-.54-9.55.2-11.38,1.66-4.1,5.12-6.73,11.3-11.45,4.26-3.24,8.09-5.5,7.57-7.37a2.15,2.15,0,0,0-1.18-1.18c-2.57-1.39-6.34,1.07-9.43,3.09s-4.52,2.94-5.4,4.51A36.49,36.49,0,0,1,3.6,66.39a1.09,1.09,0,0,1-.82.43.85.85,0,0,1-.38-.16A1.35,1.35,0,0,1,2,66.12c-.14-.32-4.26-14,1.94-23.22,8.21-12.24,32.38-7.6,36-6.92C61.28,40,74,59.4,99.89,95.9c10.5,14.8,22.61,33.78,46.62,43.68,2,.81,3.59,1.39,4.68,1.76"/></g></g></svg>